<?xml version="1.0" encoding="utf-8"?>
<!-- Generator: Adobe Illustrator 27.5.0, SVG Export Plug-In . SVG Version: 6.00 Build 0)  -->
<svg version="1.1" id="レイヤー_1" xmlns="http://www.w3.org/2000/svg" xmlns:xlink="http://www.w3.org/1999/xlink" x="0px"
	 y="0px" viewBox="0 0 235 70" style="enable-background:new 0 0 235 70;" xml:space="preserve">
<style type="text/css">
	.st0{clip-path:url(#SVGID_00000110460167010793313800000007374046641792317869_);}
	.st1{opacity:0.3;clip-path:url(#SVGID_00000110460167010793313800000007374046641792317869_);}
	.st2{fill:#FFFFFF;}
	.st3{clip-path:url(#SVGID_00000027600445006493190580000015368045686215266482_);}
	.st4{fill:#41B450;}
	.st5{fill:none;stroke:#A0A0A0;stroke-width:0.4176;stroke-miterlimit:10;}
	.st6{fill:url(#SVGID_00000178907233678357628750000005806140494068124302_);}
	.st7{fill:url(#SVGID_00000141413557084383496670000014521572711726359485_);}
	.st8{fill:url(#SVGID_00000117652784470936761710000003859689015614165937_);}
	.st9{fill:url(#SVGID_00000167362311822918930090000001614076293353120162_);}
	.st10{fill:url(#SVGID_00000022546007411566036640000002266265601463755923_);}
	.st11{fill-rule:evenodd;clip-rule:evenodd;fill:#7D0000;}
	.st12{fill-rule:evenodd;clip-rule:evenodd;fill:#FBE2CC;}
	.st13{fill-rule:evenodd;clip-rule:evenodd;fill:#EA5F39;}
	.st14{fill-rule:evenodd;clip-rule:evenodd;fill:#FFFFFF;}
	.st15{fill-rule:evenodd;clip-rule:evenodd;fill:#927054;}
	.st16{fill-rule:evenodd;clip-rule:evenodd;fill:#51A4DB;}
	.st17{fill:#F3EFE5;}
	.st18{fill:none;stroke:#FFFFFF;stroke-width:0.5965;stroke-miterlimit:10;}
	.st19{fill:#004B43;}
	.st20{fill:none;stroke:#373737;stroke-width:0.5194;stroke-miterlimit:10;}
	.st21{fill:#373737;stroke:#FFFFFF;stroke-width:0.5965;stroke-miterlimit:10;}
	.st22{fill:#32326E;stroke:#FFFFFF;stroke-width:0.5965;stroke-miterlimit:10;}
	.st23{fill:#82283C;stroke:#FFFFFF;stroke-width:0.5965;stroke-miterlimit:10;}
	.st24{fill:#40A79E;}
	.st25{fill:none;stroke:#FFFFFF;stroke-width:2;stroke-miterlimit:10;}
	.st26{fill:#8682AD;}
	.st27{fill:#DC8C46;}
	.st28{fill:#CE7FAE;}
	.st29{fill:#BC85B9;}
	.st30{fill:#C79F71;}
	.st31{fill:#F473AC;}
	.st32{fill:none;stroke:#8EE28C;stroke-width:1.3433;stroke-linecap:round;stroke-linejoin:round;stroke-miterlimit:10;}
	.st33{clip-path:url(#SVGID_00000176755526145654739240000011555270578131114402_);}
	.st34{fill:#8BD1EF;}
	.st35{fill:#A0A0A0;}
	.st36{fill:#81CE81;}
	.st37{fill:none;stroke:#000000;stroke-width:0.2768;}
	.st38{fill:none;stroke:#FFFFFF;stroke-width:1.6611;stroke-linecap:round;stroke-linejoin:round;}
	.st39{clip-path:url(#SVGID_00000082352824099015940890000003218887174413691047_);}
	.st40{fill:url(#SVGID_00000045587969092409661020000016308371218635424901_);}
	.st41{clip-path:url(#SVGID_00000101089919988650017150000007794967053759053700_);}
	.st42{clip-path:url(#SVGID_00000015351652659635699130000015343568093358823054_);}
	.st43{fill:url(#SVGID_00000161630170937112101290000006906614192527789712_);}
	.st44{clip-path:url(#SVGID_00000100374676837196281290000002973459619796613553_);}
	.st45{fill:url(#SVGID_00000036941821236586531760000017757342694298098817_);}
	.st46{clip-path:url(#SVGID_00000143582687517340105430000015336982806694677930_);}
	.st47{fill:url(#SVGID_00000052106296901520522160000003704249578288496260_);}
	.st48{clip-path:url(#SVGID_00000087386590597775494020000005049372010963298447_);}
	.st49{clip-path:url(#SVGID_00000170985568220651996640000010898005629502298016_);}
	.st50{clip-path:url(#SVGID_00000168087501530360452230000011140118213547512730_);}
	.st51{clip-path:url(#SVGID_00000131340963902298189550000000210847017319315866_);}
	.st52{clip-path:url(#SVGID_00000057108689699149232110000004655762521816917424_);}
	.st53{clip-path:url(#SVGID_00000146460596242323930880000002944271411668600460_);}
	.st54{clip-path:url(#SVGID_00000174592132824370308460000003885961940817254016_);}
	.st55{clip-path:url(#SVGID_00000173844708871878915680000014800197136680964225_);}
	.st56{clip-path:url(#SVGID_00000157986734055059638270000003157197773072095364_);}
	.st57{clip-path:url(#SVGID_00000117665649662538652360000002921165717239816326_);}
	.st58{clip-path:url(#SVGID_00000138567011350453145130000005179816692206465205_);}
	.st59{clip-path:url(#SVGID_00000116918960388256395550000002105645323734606980_);}
	.st60{clip-path:url(#SVGID_00000111905220258309736000000015814781211778276278_);}
	.st61{clip-path:url(#SVGID_00000142150561905277949750000007427576805982418621_);}
	.st62{clip-path:url(#SVGID_00000075844565584534718240000011176417426734992034_);}
	.st63{clip-path:url(#SVGID_00000092434812921161954570000000729886924443206562_);}
	.st64{clip-path:url(#SVGID_00000101789978225808435930000013565264759899327651_);}
	.st65{clip-path:url(#SVGID_00000083797973077318665630000008687179594807050423_);}
	.st66{clip-path:url(#SVGID_00000078030324656183070850000003621275678861402771_);}
	.st67{clip-path:url(#SVGID_00000134228002703961369020000013035593942532072113_);}
	.st68{clip-path:url(#SVGID_00000067937180062616928700000009525585937024959921_);}
	.st69{clip-path:url(#SVGID_00000050629705321790684630000012773597028075029926_);}
	.st70{clip-path:url(#SVGID_00000082358775703531809410000004031607423729432490_);}
	.st71{clip-path:url(#SVGID_00000020372521110051266170000009720872887700139418_);}
	.st72{clip-path:url(#SVGID_00000162334694584907756610000001135197991820010162_);}
	.st73{clip-path:url(#SVGID_00000114034247108659032330000012277098542803771796_);}
	.st74{clip-path:url(#SVGID_00000140692662228788934700000009355679799828940220_);}
	.st75{opacity:0.3;clip-path:url(#SVGID_00000140692662228788934700000009355679799828940220_);}
</style>
<g>
	<g>
		<g>
			<g>
				<g>
					<path class="st2" d="M15.7,52.6c-0.2-0.6-0.3-1.3-0.3-2.1c-0.1-0.8-0.1-1.6-0.2-2.5c0-0.8-0.1-1.6-0.2-2.4
						c-0.1-0.8-0.2-1.5-0.4-2c-0.2-0.6-0.5-1-0.8-1.4c-0.4-0.3-0.8-0.5-1.5-0.4c-0.3,0-0.6,0-1.1,0.1c-0.5,0.1-1,0.1-1.5,0.3
						c-0.5,0.1-1,0.3-1.4,0.5c-0.4,0.2-0.7,0.4-0.8,0.7L1.6,56.5c-0.4,0.4-0.7,0.4-0.9,0.2c-0.2-0.3-0.3-0.7-0.2-1.4
						c0.4-1.2,0.9-2.7,1.6-4.4c0.7-1.7,1.5-3.5,2.2-5.4c0.8-1.9,1.5-3.9,2.2-5.9c0.7-2,1.3-3.9,1.6-5.7c0.4-1.8,0.5-3.4,0.4-4.9
						c-0.1-1.5-0.5-2.6-1.3-3.5c-0.5-0.2-1-0.2-1.5,0c-0.5,0.2-1,0.5-1.4,0.8c-0.4,0.4-0.7,0.7-1,1.2c-0.3,0.4-0.4,0.8-0.3,1.1
						c0,0.3,0.3,0.5,0.7,0.6c0.4,0.1,1,0,1.9-0.3c0,0.4-0.1,0.7-0.3,1c-0.2,0.3-0.4,0.5-0.7,0.7c-0.3,0.2-0.6,0.3-1,0.4
						c-0.3,0.1-0.7,0.1-1,0.1c-0.8-0.4-1.2-0.9-1.5-1.4C1,29.1,0.9,28.6,1.1,28c0.1-0.6,0.4-1.1,0.9-1.6c0.4-0.5,1-1,1.6-1.4
						c0.6-0.4,1.2-0.7,1.9-1c0.7-0.2,1.3-0.3,1.9-0.3c1.2,0,2.1,0.2,2.7,0.7c0.6,0.5,1,1.2,1.1,2.1c0.2,0.9,0.2,1.9,0,3
						c-0.2,1.1-0.4,2.3-0.7,3.6c-0.3,1.2-0.6,2.5-0.9,3.8c-0.3,1.3-0.6,2.5-0.7,3.5c0.3,0,0.8,0,1.3-0.1c0.5-0.1,1.1-0.2,1.7-0.4
						c0.6-0.2,1.1-0.3,1.6-0.6c0.5-0.2,0.9-0.5,1.2-0.7l11.5-12.3c0.2-0.4,0.5-0.7,0.8-0.8c0.3-0.2,0.7-0.2,1-0.2
						c0.3,0,0.6,0.1,0.9,0.2c0.3,0.2,0.4,0.4,0.5,0.6c0.1,0.2,0,0.5-0.2,0.8c-0.2,0.3-0.6,0.6-1.3,0.9L15.2,40.4
						c0.5,0.3,0.8,0.9,1,1.8c0.2,0.9,0.3,1.8,0.4,2.8c0.1,1,0.1,2.1,0.1,3.1c0,1.1,0.1,2,0.3,2.7c0.3,1.4,0.7,2.4,1.4,3
						c0.7,0.5,1.4,0.8,2.3,0.7c0.9-0.1,1.8-0.4,2.8-1c1-0.6,1.9-1.2,2.8-1.9c0.9-0.7,1.7-1.5,2.5-2.2c0.7-0.7,1.3-1.3,1.7-1.8
						c0.3-0.1,0.5-0.1,0.8-0.1c0.2,0.1,0.3,0.2,0.4,0.4c0.1,0.2,0,0.4-0.1,0.7c-0.1,0.3-0.3,0.5-0.6,0.8c-0.2,0.4-0.5,0.8-1,1.4
						c-0.5,0.5-1,1.1-1.7,1.6c-0.7,0.6-1.4,1.1-2.2,1.6c-0.8,0.5-1.6,1-2.4,1.4c-0.8,0.4-1.6,0.7-2.4,0.8c-0.8,0.2-1.6,0.1-2.3,0
						c-0.7-0.2-1.3-0.6-1.9-1.1C16.5,54.6,16.1,53.7,15.7,52.6z"/>
					<path class="st2" d="M38.2,57.2c-1.8,0.2-3.3,0.1-4.4-0.2s-2.1-0.9-2.7-1.5c-0.7-0.7-1.1-1.5-1.3-2.4c-0.2-0.9-0.3-1.9-0.1-2.9
						c0.1-1,0.4-2,0.8-3c0.4-1,0.9-1.8,1.5-2.6c0.6-0.8,1.2-1.3,1.9-1.8c0.7-0.4,1.3-0.6,2-0.5c1.4,0,2.4,0.3,3,0.9
						c0.6,0.5,0.9,1.2,1,2c0,0.8-0.2,1.6-0.6,2.5c-0.5,0.9-1,1.7-1.8,2.5c-0.7,0.8-1.5,1.5-2.4,2c-0.9,0.5-1.7,0.9-2.6,0.9
						c0.7,1.1,1.4,1.8,2.3,2.2c0.9,0.4,1.8,0.5,2.8,0.4c1-0.1,1.9-0.4,2.9-0.9c1-0.5,1.8-1.1,2.6-1.7c0.8-0.7,1.5-1.4,2-2.1
						c0.5-0.7,0.9-1.4,1-2c0.2-0.3,0.4-0.5,0.6-0.5c0.2-0.1,0.5-0.1,0.7,0.1c0.2,0.1,0.4,0.3,0.5,0.5c0.1,0.3,0.1,0.5,0.1,0.8
						c-0.4,0.9-1,1.8-1.6,2.7c-0.6,0.9-1.4,1.7-2.2,2.4c-0.8,0.7-1.7,1.3-2.7,1.7C40.4,57,39.3,57.2,38.2,57.2z M35.8,44.2
						c-0.7,0.1-1.4,0.4-1.9,0.9c-0.5,0.6-0.9,1.2-1.2,2c-0.3,0.7-0.4,1.5-0.5,2.2c0,0.8,0.1,1.4,0.3,1.8c0.4,0,0.9-0.3,1.5-0.6
						c0.6-0.4,1.1-0.8,1.6-1.3c0.5-0.5,1-1.1,1.4-1.7c0.4-0.6,0.6-1.1,0.7-1.6c0.1-0.5,0-0.9-0.2-1.2C37.2,44.3,36.6,44.2,35.8,44.2
						z"/>
					<path class="st2" d="M54.6,57.2c-1.8,0.2-3.3,0.1-4.4-0.2c-1.2-0.3-2.1-0.9-2.7-1.5c-0.7-0.7-1.1-1.5-1.3-2.4
						c-0.2-0.9-0.3-1.9-0.1-2.9c0.1-1,0.4-2,0.8-3c0.4-1,0.9-1.8,1.5-2.6c0.6-0.8,1.2-1.3,1.9-1.8c0.7-0.4,1.3-0.6,2-0.5
						c1.4,0,2.4,0.3,3,0.9c0.6,0.5,0.9,1.2,1,2c0,0.8-0.2,1.6-0.6,2.5c-0.5,0.9-1,1.7-1.8,2.5c-0.7,0.8-1.5,1.5-2.4,2
						c-0.9,0.5-1.7,0.9-2.6,0.9c0.7,1.1,1.4,1.8,2.3,2.2c0.9,0.4,1.8,0.5,2.8,0.4c1-0.1,1.9-0.4,2.9-0.9c1-0.5,1.8-1.1,2.6-1.7
						c0.8-0.7,1.5-1.4,2-2.1c0.5-0.7,0.9-1.4,1-2c0.2-0.3,0.4-0.5,0.6-0.5c0.2-0.1,0.5-0.1,0.7,0.1c0.2,0.1,0.4,0.3,0.5,0.5
						c0.1,0.3,0.1,0.5,0.1,0.8c-0.4,0.9-1,1.8-1.6,2.7c-0.6,0.9-1.4,1.7-2.2,2.4c-0.8,0.7-1.7,1.3-2.7,1.7
						C56.8,57,55.7,57.2,54.6,57.2z M52.2,44.2c-0.7,0.1-1.4,0.4-1.9,0.9c-0.5,0.6-0.9,1.2-1.2,2c-0.3,0.7-0.4,1.5-0.5,2.2
						c0,0.8,0.1,1.4,0.3,1.8c0.4,0,0.9-0.3,1.5-0.6c0.6-0.4,1.1-0.8,1.6-1.3c0.5-0.5,1-1.1,1.4-1.7c0.4-0.6,0.6-1.1,0.7-1.6
						c0.1-0.5,0-0.9-0.2-1.2C53.6,44.3,53,44.2,52.2,44.2z"/>
					<path class="st2" d="M58.6,68.6c0.4-1.4,0.7-2.9,1.1-4.2c0.3-1.4,0.6-2.7,0.9-4c0.3-1.3,0.5-2.4,0.8-3.5c0.2-1.1,0.5-2,0.7-2.8
						c0-1.9,0.3-3.7,0.8-5.3c0.5-1.6,1.3-3,2.1-4.1c0.9-1.1,1.8-2,2.9-2.5c1.1-0.6,2.1-0.7,3.1-0.5c1,0.2,1.9,0.9,2.8,2
						c0.8,1.1,1.5,2.7,2,4.8c0.1,1.3,0.1,2.4-0.2,3.3c-0.3,0.9-0.6,1.5-1,2.1c-0.4,0.5-0.8,0.9-1.3,1.1c-0.4,0.3-0.7,0.4-0.9,0.5
						c0.3,0.1,0.7,0.1,1.2-0.1c0.5-0.2,1-0.5,1.5-0.9c0.5-0.4,1.1-0.8,1.6-1.3c0.5-0.5,1-1,1.5-1.6c0.5-0.5,0.9-1,1.3-1.5
						c0.4-0.5,0.7-0.9,0.9-1.2c0.8-0.6,1.3-0.8,1.4-0.5c0.2,0.3,0.1,1-0.2,1.9c-0.8,1.7-1.9,3.1-3.2,4.2c-1.3,1.1-2.8,1.9-4.3,2.4
						c-1.6,0.5-3.2,0.7-4.9,0.6c-1.7-0.1-3.3-0.5-4.9-1.1h-0.1c-0.4,1.1-0.7,2.2-1.1,3.4c-0.3,1.2-0.7,2.4-1,3.6
						c-0.3,1.2-0.6,2.3-0.9,3.3c-0.3,1-0.6,1.9-1,2.5c-0.3,0.3-0.6,0.4-1,0.3C58.8,69.4,58.6,69.1,58.6,68.6z M64.1,52.2
						c0.4-0.6,1-0.9,1.7-0.9c0.7,0,1.5,0.1,2.2,0.4c0.7,0.3,1.4,0.6,1.9,1c0.6,0.4,0.9,0.8,1,1.1h0.2c0.6,0.1,1.1-0.1,1.5-0.5
						c0.4-0.4,0.7-0.9,1-1.5c0.2-0.6,0.4-1.3,0.4-1.9c0.1-0.7,0-1.3-0.1-1.8c-0.2-1.4-0.6-2.4-1.2-3c-0.6-0.6-1.3-1-2.1-1
						c-0.8,0-1.6,0.2-2.4,0.6c-0.8,0.4-1.6,1.1-2.2,1.8c-0.7,0.8-1.2,1.6-1.5,2.6C64,50.1,63.9,51.1,64.1,52.2z M69,55
						c0-0.5-0.1-0.9-0.4-1.3c-0.3-0.4-0.7-0.6-1.2-0.6c-0.4,0-0.8,0.2-1.2,0.5c-0.4,0.4-0.7,0.7-1,1L69,55z"/>
					<path class="st2" d="M112.5,55.7c-1.8,0.3-3.3,0.4-4.7,0.2c-1.4-0.2-2.7-0.5-3.8-1c-1.1-0.5-2-1.1-2.8-1.9
						c-0.8-0.8-1.4-1.6-1.9-2.4c-0.5-0.9-0.8-1.7-1-2.6c-0.2-0.9-0.2-1.7-0.1-2.4c0.1-0.7,0.4-1.4,0.8-1.9c0.4-0.5,0.9-0.9,1.6-1.1
						c0.8-0.2,1.4-0.1,2,0.3c0.6,0.4,1.1,1,1.6,1.7c0.5,0.7,1,1.4,1.4,2.2c0.4,0.8,0.8,1.5,1.2,2c-0.3-1.2-0.4-2.6-0.4-4
						c0-1.5,0.2-3,0.6-4.5s0.8-3,1.5-4.5c0.7-1.5,1.4-2.8,2.3-4c0.9-1.2,2-2.1,3.2-2.9c1.2-0.8,2.5-1.2,4-1.4
						c1.3,0.1,2.4,0.5,3.2,1.2c0.8,0.7,1.4,1.5,1.7,2.6c0.4,1,0.5,2.2,0.5,3.6c0,1.3-0.2,2.7-0.5,4.2c-0.3,1.5-0.8,3-1.3,4.5
						c-0.6,1.5-1.2,3-2,4.4c-0.8,1.4-1.6,2.7-2.5,3.9c-0.9,1.2-1.8,2.2-2.7,3c0.4,0.3,0.9,0.5,1.6,0.5c0.7,0,1.4-0.1,2.1-0.4
						c0.8-0.3,1.5-0.6,2.3-1c0.8-0.4,1.6-0.9,2.3-1.4c0.7-0.5,1.4-1,1.9-1.6c0.6-0.5,1-1,1.3-1.5c0.5-0.8,1-1.3,1.4-1.4
						c0.4-0.1,0.7,0,0.9,0.2c0.2,0.3,0.3,0.6,0.3,1c0,0.4-0.1,0.7-0.3,0.8c-0.8,1-1.7,2-2.7,2.8c-1,0.9-2,1.6-3,2.3
						c-1.1,0.7-2.1,1.2-3.2,1.6c-1.1,0.4-2,0.7-3,0.8c-0.9,0.1-1.8,0-2.5-0.2C113.4,56.7,112.9,56.3,112.5,55.7z M99.9,47
						c0.1,0.7,0.3,1.5,0.7,2.4c0.4,0.9,0.9,1.7,1.7,2.4c0.8,0.7,1.8,1.2,3.1,1.5c1.3,0.3,2.9,0.3,4.8-0.1c0-0.1-0.2-0.2-0.4-0.4
						c-0.2-0.2-0.4-0.5-0.6-0.7c-0.2-0.3-0.4-0.5-0.6-0.7c-0.2-0.2-0.3-0.3-0.3-0.3c-0.3,0.3-0.7,0.3-1.1,0.1
						c-0.4-0.2-0.8-0.6-1.2-1c-0.4-0.5-0.8-1-1.3-1.7c-0.4-0.6-0.8-1.3-1.3-1.9c-0.4-0.6-0.8-1.1-1.2-1.6c-0.4-0.4-0.7-0.7-1.1-0.8
						c-0.3-0.1-0.6,0.1-0.9,0.5C100.3,45.2,100.1,46,99.9,47z M118.1,29.5c-1,0.2-1.9,0.5-2.8,1.2c-0.9,0.6-1.8,1.4-2.5,2.3
						c-0.8,0.9-1.5,2-2.1,3.2c-0.6,1.2-1.1,2.4-1.4,3.7c-0.4,1.3-0.6,2.6-0.7,3.9c-0.1,1.3,0,2.5,0.3,3.7c0.3,1.2,0.7,2.2,1.4,3.2
						c0.7,1,1.5,1.7,2.7,2.3c0.9-0.6,1.7-1.5,2.6-2.5c0.8-1,1.6-2.1,2.3-3.3c0.7-1.2,1.3-2.4,1.9-3.7c0.5-1.3,1-2.6,1.3-3.9
						c0.3-1.3,0.5-2.5,0.7-3.7c0.1-1.2,0-2.2-0.2-3.2c-0.2-0.9-0.6-1.7-1.1-2.3C119.7,30,119,29.6,118.1,29.5z"/>
					<path class="st2" d="M140.5,48.5c-0.8,1.4-1.7,2.7-2.7,3.8c-1,1.1-2,2.1-3.1,2.9c-1.1,0.8-2.1,1.4-3.1,1.8
						c-1,0.4-1.9,0.5-2.7,0.4c-0.8-0.1-1.5-0.5-2-1.1c-0.5-0.6-0.8-1.5-0.8-2.7c0-1.2,0.2-2.7,0.7-4.6c0.5-1.9,1.4-4.1,2.7-6.7
						l-3.4-0.3c-0.1,0-0.1-0.1-0.2-0.3c-0.1-0.2-0.1-0.4-0.1-0.7c0-0.2,0.1-0.5,0.2-0.7c0.1-0.2,0.4-0.3,0.8-0.3c0.3,0,0.8,0,1.5,0
						c0.7,0,1.3,0.1,1.9,0.1l3.2-9.8c0.2,0,0.4,0,0.7,0c0.2,0,0.5,0.1,0.6,0.1c0.2,0.1,0.3,0.2,0.5,0.4c0.1,0.2,0.2,0.4,0.2,0.7
						l-3,8.5c0.4,0,0.8,0.1,1,0.1c0.2,0,0.4,0,0.6,0.1c0.2,0,0.4,0,0.6,0c0.2,0,0.6,0,1.1,0c0.4,0.1,0.6,0.2,0.8,0.5
						c0.2,0.2,0.2,0.4,0.2,0.7c0,0.2-0.1,0.4-0.3,0.6c-0.2,0.2-0.5,0.3-0.8,0.4l-3.5-0.2c-1.2,2.5-2.1,4.6-2.7,6.3
						c-0.6,1.7-0.9,3-1,4c-0.1,1,0,1.7,0.3,2.2c0.3,0.4,0.8,0.6,1.4,0.6c0.6,0,1.3-0.3,2-0.7s1.6-1,2.4-1.7c0.8-0.7,1.6-1.5,2.4-2.5
						c0.8-0.9,1.5-1.9,2.1-2.8c0.2,0,0.3,0,0.5,0c0.2,0,0.3,0,0.5,0c0.1,0,0.3,0.1,0.4,0.3C140.4,48,140.5,48.2,140.5,48.5z"/>
					<path class="st2" d="M158.6,56.8c-0.2,0-0.4,0-0.6,0c-0.2,0-0.4-0.1-0.5-0.1c-0.2-0.1-0.3-0.1-0.4-0.2
						c-0.1-0.1-0.1-0.2-0.1-0.4c1-2.7,1.8-5,2.6-7c0.8-2,1.4-3.7,2-5.1c0.6-1.4,1.1-2.6,1.5-3.6c0.4-1,0.7-1.8,1-2.4
						c0.3-0.6,0.5-1.1,0.7-1.5c0.2-0.4,0.3-0.7,0.4-0.9c0.1-0.2,0.2-0.5,0.2-0.7c0.1-0.2,0.1-0.4,0.1-0.7c-1.1,0.1-2.1-0.1-3-0.4
						c-0.9-0.4-1.7-0.8-2.4-1.4c-0.6-0.6-1.1-1.2-1.3-1.9c-0.3-0.7-0.2-1.3,0.1-1.9c0.5,0,1,0.2,1.4,0.5c0.4,0.4,0.8,0.7,1.2,1.2
						c0.4,0.4,0.9,0.8,1.4,1.2c0.5,0.4,1.2,0.5,2,0.5c0.8-0.5,1.5-1.1,2-1.8c0.5-0.6,1-1.2,1.6-1.8c0.5-0.6,1.2-1.1,2-1.5
						c0.8-0.4,1.8-0.8,3.1-0.9c1.5-0.1,2.8,0.1,3.7,0.7c0.9,0.5,1.6,1.3,2,2.2c0.4,0.9,0.6,2,0.5,3.2c-0.1,1.2-0.4,2.4-0.9,3.6
						c-0.5,1.2-1.2,2.4-2.1,3.5c-0.9,1.1-1.9,2-3.1,2.7c-0.1,0.7-0.3,1.5-0.5,2.4c-0.2,0.9-0.4,1.8-0.6,2.7
						c-0.2,0.9-0.4,1.8-0.5,2.7c-0.1,0.9-0.1,1.7-0.1,2.4c0.1,0.7,0.3,1.3,0.7,1.9c0.4,0.5,0.9,0.9,1.7,1c0.5,0.1,1.1,0,1.7-0.3
						c0.6-0.3,1.1-0.7,1.7-1.2c0.6-0.5,1.1-1.1,1.6-1.7c0.5-0.6,1-1.2,1.4-1.8c0.4-0.5,0.8-1,1-1.4c0.3-0.4,0.5-0.6,0.5-0.7
						c0.2,0,0.4,0,0.6-0.1c0.2-0.1,0.3-0.1,0.4-0.1c0.1,0,0.2,0.1,0.3,0.2c0.1,0.1,0.1,0.4,0.1,0.8c-1.7,2.8-3.4,5-5.1,6.4
						c-1.7,1.5-3.3,2.1-4.7,1.9c-1.1-0.3-2-0.8-2.6-1.4c-0.6-0.6-1-1.2-1.2-2c-0.2-0.7-0.3-1.5-0.2-2.4c0.1-0.9,0.2-1.8,0.4-2.7
						c0.2-0.9,0.3-1.8,0.5-2.8c0.2-0.9,0.3-1.8,0.3-2.7c-1.6,0.8-3,1.2-4.1,1.2c-1.1,0-2-0.4-2.6-1.3L158.6,56.8z M170.4,41.4
						c-0.3-0.5-0.6-0.9-1-1.1c-0.4-0.3-0.9-0.4-1.4-0.4c-0.5,0-0.9,0.2-1.4,0.5c-0.4,0.3-0.8,0.8-1.1,1.4c0.2,0,0.5,0,1,0.1
						c0.5,0,1,0.1,1.6,0.1c0.5,0,1,0,1.5-0.1C170,41.8,170.3,41.6,170.4,41.4z M165.9,39.2c0.6-0.4,1.3-0.6,1.8-0.6
						c0.6,0,1.1,0,1.7,0.2c0.5,0.2,1.1,0.4,1.5,0.6c0.5,0.3,1,0.5,1.4,0.7c0.9-0.3,1.7-0.8,2.4-1.6c0.7-0.8,1.3-1.6,1.7-2.5
						c0.4-0.9,0.7-1.9,0.9-2.9c0.1-1,0.1-1.9-0.1-2.7c-0.2-0.8-0.6-1.5-1.2-1.9c-0.6-0.5-1.4-0.7-2.4-0.6c-0.8,0-1.5,0.2-2.2,0.6
						c-0.7,0.4-1.3,0.9-1.8,1.6c-0.5,0.6-1,1.4-1.5,2.2c-0.4,0.8-0.8,1.7-1.1,2.5c-0.3,0.8-0.6,1.7-0.8,2.5
						C166.2,37.9,166,38.6,165.9,39.2z"/>
					<path class="st2" d="M189.5,57.2c-1.8,0.2-3.3,0.1-4.4-0.2c-1.2-0.3-2.1-0.9-2.7-1.5c-0.7-0.7-1.1-1.5-1.3-2.4
						c-0.2-0.9-0.3-1.9-0.1-2.9c0.1-1,0.4-2,0.8-3c0.4-1,0.9-1.8,1.5-2.6c0.6-0.8,1.2-1.3,1.9-1.8c0.7-0.4,1.3-0.6,2-0.5
						c1.4,0,2.4,0.3,3,0.9c0.6,0.5,0.9,1.2,1,2c0,0.8-0.2,1.6-0.6,2.5c-0.5,0.9-1,1.7-1.8,2.5c-0.7,0.8-1.5,1.5-2.4,2
						c-0.9,0.5-1.7,0.9-2.6,0.9c0.7,1.1,1.4,1.8,2.3,2.2c0.9,0.4,1.8,0.5,2.8,0.4c1-0.1,1.9-0.4,2.9-0.9c1-0.5,1.8-1.1,2.6-1.7
						c0.8-0.7,1.5-1.4,2-2.1c0.5-0.7,0.9-1.4,1-2c0.2-0.3,0.4-0.5,0.6-0.5c0.2-0.1,0.5-0.1,0.7,0.1c0.2,0.1,0.4,0.3,0.5,0.5
						c0.1,0.3,0.1,0.5,0.1,0.8c-0.4,0.9-1,1.8-1.6,2.7c-0.6,0.9-1.4,1.7-2.2,2.4c-0.8,0.7-1.7,1.3-2.7,1.7
						C191.7,57,190.6,57.2,189.5,57.2z M187.1,44.2c-0.7,0.1-1.4,0.4-1.9,0.9c-0.5,0.6-0.9,1.2-1.2,2c-0.3,0.7-0.4,1.5-0.5,2.2
						c0,0.8,0.1,1.4,0.3,1.8c0.4,0,0.9-0.3,1.5-0.6c0.6-0.4,1.1-0.8,1.6-1.3c0.5-0.5,1-1.1,1.4-1.7c0.4-0.6,0.6-1.1,0.7-1.6
						c0.1-0.5,0-0.9-0.2-1.2C188.5,44.3,187.9,44.2,187.1,44.2z"/>
					<path class="st2" d="M206.9,55.2c-0.5,0.2-1,0.4-1.4,0.6c-0.4,0.2-0.7,0.5-1.1,0.7c-0.4,0.2-0.8,0.4-1.2,0.6
						c-0.4,0.1-1,0.2-1.7,0.2c-1.7-0.4-3-1-3.8-1.8c-0.8-0.9-1.3-1.8-1.4-2.9c-0.1-1.1,0.1-2.2,0.6-3.4c0.5-1.2,1.2-2.2,2.1-3.2
						c0.9-1,2-1.8,3.2-2.4c1.2-0.7,2.5-1,3.9-1c0.3,0,0.8-0.1,1.3-0.1c0.5,0,1,0.1,1.5,0.3c0.5,0.2,0.9,0.5,1.2,1
						c0.3,0.4,0.5,1.1,0.6,1.9c0.1,0.8-0.1,1.8-0.4,3c-0.3,1.2-0.9,2.7-1.8,4.5c0.1,0.9,0.4,1.5,0.8,1.7c0.4,0.2,0.8,0.3,1.3,0.1
						c0.5-0.2,1-0.6,1.6-1.1c0.6-0.5,1.1-1.1,1.6-1.8c0.5-0.7,0.9-1.3,1.3-2c0.4-0.7,0.6-1.2,0.7-1.7c0.5-0.4,0.9-0.5,1.3-0.2
						c0.4,0.3,0.5,0.8,0.5,1.5c-0.6,1.7-1.4,3.2-2.5,4.3c-1,1.1-2.1,1.9-3.1,2.4c-1.1,0.5-2,0.6-2.9,0.4c-0.9-0.2-1.5-0.7-1.9-1.5
						H206.9z M206.4,44.3c-0.8,0-1.7,0.3-2.6,0.8c-0.9,0.5-1.7,1.1-2.5,1.9c-0.7,0.8-1.4,1.6-1.9,2.5c-0.5,0.9-0.8,1.7-0.9,2.6
						c-0.1,0.8,0.1,1.5,0.6,2.1c0.5,0.6,1.3,1,2.5,1.1c1.2,0,2.3-0.3,3.1-1c0.8-0.6,1.5-1.4,2-2.3c0.5-0.9,0.9-1.8,1.2-2.7
						c0.3-0.9,0.5-1.6,0.7-2.1c0-0.4,0-0.7-0.1-1.1c-0.1-0.4-0.2-0.7-0.4-0.9c-0.2-0.3-0.4-0.5-0.7-0.7
						C207.1,44.4,206.8,44.3,206.4,44.3z"/>
					<path class="st2" d="M219.7,57.3c-1.3-0.3-2.3-1.1-2.9-2.3s-1.1-2.7-1.3-4.4c-0.2-1.7-0.1-3.6,0.1-5.6c0.3-2,0.7-4,1.4-6
						c0.6-2,1.4-3.8,2.4-5.6c0.9-1.7,2-3.2,3.2-4.3c0.6-0.4,1.2-0.6,1.7-0.5c0.5,0,0.9,0.2,1.2,0.5c0.3,0.3,0.6,0.7,0.7,1.2
						c0.2,0.5,0.3,1,0.3,1.6c-0.1,2-0.4,3.9-0.9,5.8c-0.5,1.9-1.1,3.7-1.9,5.3c-0.8,1.7-1.6,3.3-2.7,4.8c-1,1.5-2.1,2.8-3.4,4
						c0,1.2,0.2,2.1,0.7,2.6c0.5,0.5,1.1,0.7,1.8,0.7c0.7,0,1.5-0.3,2.4-0.8c0.9-0.5,1.8-1,2.7-1.7c0.9-0.7,1.7-1.4,2.5-2.2
						c0.8-0.8,1.4-1.5,1.9-2.2c0.5,0.4,0.6,0.9,0.4,1.5c-0.2,0.6-0.6,1.3-1.3,2c-0.6,0.7-1.4,1.4-2.3,2.1c-0.9,0.7-1.8,1.4-2.7,1.9
						c-0.9,0.6-1.7,1-2.4,1.3C220.4,57.3,219.9,57.4,219.7,57.3z M223.5,31.2c-0.6,0.3-1.2,0.9-1.8,1.8c-0.6,0.9-1.1,2-1.6,3.2
						c-0.5,1.2-0.9,2.5-1.3,3.9c-0.4,1.4-0.7,2.6-0.9,3.8c-0.2,1.2-0.4,2.3-0.5,3.2c-0.1,0.9-0.1,1.5,0.1,1.8
						c0.4-0.2,0.9-0.7,1.4-1.3c0.5-0.6,1-1.4,1.5-2.3c0.5-0.9,0.9-1.9,1.4-2.9c0.5-1.1,0.9-2.1,1.2-3.2c0.4-1.1,0.7-2.1,0.9-3.1
						c0.3-1,0.4-1.8,0.5-2.6c0.1-0.7,0-1.3-0.1-1.7C224.2,31.3,223.9,31.2,223.5,31.2z"/>
					<path class="st2" d="M233.4,56.7c-0.3,0.1-0.6,0.1-0.8-0.1c-0.2-0.2-0.4-0.4-0.5-0.7c-0.1-0.3-0.1-0.6,0-0.9
						c0.1-0.3,0.3-0.6,0.6-0.8c0.5-0.4,0.9-0.5,1.2-0.3c0.3,0.2,0.5,0.5,0.6,0.9c0.1,0.4,0.1,0.8-0.1,1.2
						C234.2,56.3,233.9,56.6,233.4,56.7z"/>
				</g>
			</g>
		</g>
		<g>
			<g>
				<g>
					<path class="st2" d="M80.7,2.3v13.2H79v-0.8h-8.6v0.9h-1.6V2.3h4.3c0.2-0.7,0.4-1.6,0.6-2.3l1.9,0.2c-0.3,0.7-0.5,1.4-0.8,2
						H80.7z M70.5,3.8v2.2H79V3.8H70.5z M70.5,7.4v2.2H79V7.4H70.5z M79,13.2V11h-8.6v2.2H79z"/>
					<path class="st2" d="M98,0.3c1.1,2.2,3.2,4.7,5,6c-0.4,0.3-1,1-1.3,1.4c-0.5-0.4-0.9-0.9-1.4-1.4c0,0.2,0,0.5,0,0.7
						c-0.2,5.1-0.5,7.1-1,7.7c-0.4,0.5-0.8,0.6-1.4,0.7c-0.6,0.1-1.6,0.1-2.6,0c0-0.5-0.2-1.1-0.5-1.6c1,0.1,2,0.1,2.4,0.1
						c0.3,0,0.5-0.1,0.7-0.2c0.4-0.4,0.6-2,0.8-5.9h-3.9c-0.4,3.3-1.5,6.2-5.9,7.8c-0.2-0.4-0.6-1.1-1-1.4c3.9-1.3,4.8-3.8,5.1-6.4
						h-3.2V6.5c-0.5,0.5-1,1-1.5,1.4c-0.3-0.3-1-1-1.3-1.3c2.1-1.4,4-3.7,5-6.3l1.7,0.5c-0.9,2-2.1,3.9-3.6,5.5h10.2
						c-1.4-1.5-2.8-3.5-3.8-5.4L98,0.3z"/>
					<path class="st2" d="M110.3,8.4c1.6-1.3,3.4-1.9,5.3-1.9c2.8,0,4.5,1.7,4.5,3.7c0,3-2.6,5.2-9.2,4.7l-0.5-1.7
						c5.2,0.7,7.9-0.7,7.9-3c0-1.3-1.2-2.1-2.8-2.1c-2.1,0-3.9,0.8-5,2.1c-0.3,0.3-0.4,0.6-0.6,0.9l-1.6-0.4c0.3-1.6,0.7-5,0.9-7
						L111,4C110.8,5.1,110.5,7.4,110.3,8.4z M117.8,2.1l-0.4,1.6c-1.7-0.2-5.4-1-6.7-1.3l0.4-1.6C112.7,1.3,116.3,1.9,117.8,2.1z"/>
					<path class="st2" d="M129.4,2.9c-0.1,1.9-0.2,5.8-0.2,8.1c0,1.8,1.1,2.4,2.6,2.4c3,0,4.7-1.7,6-3.5l1.2,1.5
						c-1.1,1.6-3.4,3.8-7.2,3.8c-2.6,0-4.3-1.1-4.3-3.9c0-2.4,0.2-6.8,0.2-8.4c0-0.7-0.1-1.4-0.2-2l2.2,0
						C129.4,1.6,129.4,2.3,129.4,2.9z"/>
					<path class="st2" d="M151.1,2.9c-1.1,0.9-3.5,2.8-4.7,3.8c-1,0.8-1,1,0,1.9c1.4,1.2,4.5,3.6,6.3,5.4l-1.5,1.4
						c-0.4-0.5-0.8-0.9-1.3-1.4c-1.1-1.2-3.7-3.3-5.2-4.6c-1.6-1.4-1.5-2.2,0.1-3.5c1.3-1.1,3.8-3,4.9-4.2c0.4-0.4,0.9-0.9,1.1-1.3
						l1.6,1.4C151.9,2.2,151.4,2.6,151.1,2.9z"/>
					<path class="st2" d="M158.2,11.5l1.4-1.2c1.2,1,2.8,2.6,3.7,3.7l-1.4,1.2C160.8,13.9,159.4,12.5,158.2,11.5z"/>
				</g>
			</g>
		</g>
	</g>
</g>
</svg>
