<svg xmlns="http://www.w3.org/2000/svg" width="18.042" height="14.766" viewBox="0 0 18.042 14.766">
  <path id="パス_193" data-name="パス 193" d="M343.108,5603.844a6.772,6.772,0,0,0-.694-2.237c-.715-.982-2.392-2.686-8.324-2.686s-7.608,1.7-8.323,2.686a6.772,6.772,0,0,0-.694,2.237.89.89,0,0,0,.9.982h2.682a.949.949,0,0,0,.953-.986s-.019-.784-.02-1.172c0-.87.983-1,1.306-1v1.612c0,1.691-1.676,2.365-3.215,5.017a11.8,11.8,0,0,0-1.2,3.819,1.484,1.484,0,0,0,1.494,1.576h12.233a1.484,1.484,0,0,0,1.494-1.576,11.8,11.8,0,0,0-1.2-3.819c-1.539-2.652-3.215-3.326-3.215-5.017h0v-1.612c.323,0,1.31.135,1.306,1,0,.388-.021,1.172-.021,1.172a.95.95,0,0,0,.954.986h2.681A.89.89,0,0,0,343.108,5603.844Zm-5.293,4.872a3.725,3.725,0,1,1-3.725-3.724A3.725,3.725,0,0,1,337.815,5608.716Zm-2.108-5.789h-3.233v-1.264h3.233Z" transform="translate(-325.069 -5598.921)" fill="#fff"/>
</svg>
