<?xml version="1.0" encoding="utf-8"?>
<!-- Generator: Adobe Illustrator 27.5.0, SVG Export Plug-In . SVG Version: 6.00 Build 0)  -->
<svg version="1.1" id="レイヤー_1" xmlns="http://www.w3.org/2000/svg" xmlns:xlink="http://www.w3.org/1999/xlink" x="0px"
	 y="0px" viewBox="0 0 40 40" style="enable-background:new 0 0 40 40;" xml:space="preserve">
<style type="text/css">
	.st0{clip-path:url(#SVGID_00000087372527483279308030000012124091469159303068_);}
	.st1{opacity:0.3;clip-path:url(#SVGID_00000087372527483279308030000012124091469159303068_);}
	.st2{fill:#FFFFFF;}
	.st3{clip-path:url(#SVGID_00000063596215448498450310000016427084597599190931_);}
	.st4{fill:#41B450;}
	.st5{fill:none;stroke:#A0A0A0;stroke-width:0.4176;stroke-miterlimit:10;}
	.st6{fill:url(#SVGID_00000150092494191059168370000014477041429794471322_);}
	.st7{fill:url(#SVGID_00000125580832436868287260000002353707606093550475_);}
	.st8{fill:url(#SVGID_00000021080036842637131920000003109300342009310345_);}
	.st9{fill:url(#SVGID_00000144331571763167235970000018250388125168763010_);}
	.st10{fill:url(#SVGID_00000003064515786408640960000001859127893225828794_);}
	.st11{fill-rule:evenodd;clip-rule:evenodd;fill:#7D0000;}
	.st12{fill-rule:evenodd;clip-rule:evenodd;fill:#FBE2CC;}
	.st13{fill-rule:evenodd;clip-rule:evenodd;fill:#EA5F39;}
	.st14{fill-rule:evenodd;clip-rule:evenodd;fill:#FFFFFF;}
	.st15{fill-rule:evenodd;clip-rule:evenodd;fill:#927054;}
	.st16{fill-rule:evenodd;clip-rule:evenodd;fill:#51A4DB;}
	.st17{fill:#F3EFE5;}
	.st18{fill:none;stroke:#FFFFFF;stroke-width:0.5965;stroke-miterlimit:10;}
	.st19{fill:#004B43;}
	.st20{fill:none;stroke:#373737;stroke-width:0.5194;stroke-miterlimit:10;}
	.st21{fill:#373737;stroke:#FFFFFF;stroke-width:0.5965;stroke-miterlimit:10;}
	.st22{fill:#32326E;stroke:#FFFFFF;stroke-width:0.5965;stroke-miterlimit:10;}
	.st23{fill:#82283C;stroke:#FFFFFF;stroke-width:0.5965;stroke-miterlimit:10;}
	.st24{fill:#40A79E;}
	.st25{fill:none;stroke:#FFFFFF;stroke-width:2;stroke-miterlimit:10;}
	.st26{fill:#8682AD;}
	.st27{fill:#DC8C46;}
	.st28{fill:#CE7FAE;}
	.st29{fill:#BC85B9;}
	.st30{fill:#C79F71;}
	.st31{fill:#F473AC;}
	.st32{fill:none;stroke:#8EE28C;stroke-width:1.3433;stroke-linecap:round;stroke-linejoin:round;stroke-miterlimit:10;}
	.st33{clip-path:url(#SVGID_00000040540037594718338650000005308661170688608419_);}
	.st34{fill:#8BD1EF;}
	.st35{fill:#A0A0A0;}
	.st36{fill:#81CE81;}
	.st37{fill:none;stroke:#000000;stroke-width:0.2768;}
	.st38{fill:none;stroke:#FFFFFF;stroke-width:1.6611;stroke-linecap:round;stroke-linejoin:round;}
	.st39{clip-path:url(#SVGID_00000066481054723957949980000000124837208377950136_);}
	.st40{fill:url(#SVGID_00000086666979334415017000000008354293942174370463_);}
	.st41{clip-path:url(#SVGID_00000027567775038814516120000004188782534373220004_);}
	.st42{clip-path:url(#SVGID_00000070108651977802227800000000843522149330992825_);}
	.st43{fill:url(#SVGID_00000000222215072708083200000000116986845005783718_);}
	.st44{clip-path:url(#SVGID_00000003081596348175335000000018123982404649933205_);}
	.st45{fill:url(#SVGID_00000163056996497188939160000005012042397836253873_);}
	.st46{clip-path:url(#SVGID_00000101785050809021842060000004433426117276132787_);}
	.st47{fill:url(#SVGID_00000017503662763747691530000010826817321371360924_);}
	.st48{clip-path:url(#SVGID_00000021802945898517070510000017259980133814829964_);}
	.st49{clip-path:url(#SVGID_00000003804255101296909350000018213737278986989185_);}
	.st50{clip-path:url(#SVGID_00000131333615723142650550000015762331522184520608_);}
	.st51{clip-path:url(#SVGID_00000092442353967774657050000013873756988506114217_);}
	.st52{clip-path:url(#SVGID_00000129911551791079281340000016678464320308347567_);}
	.st53{clip-path:url(#SVGID_00000122705240720657512810000012805530544552345748_);}
	.st54{clip-path:url(#SVGID_00000145762525775916333170000004786142341616525726_);}
	.st55{clip-path:url(#SVGID_00000070825238324134348440000017055578717083651503_);}
	.st56{clip-path:url(#SVGID_00000087377776709883580690000013827494814106900646_);}
	.st57{clip-path:url(#SVGID_00000006707119550160879860000015412770574048718783_);}
	.st58{clip-path:url(#SVGID_00000003079298216663418180000003649805536752049544_);}
	.st59{clip-path:url(#SVGID_00000127009546883064088900000003622627476301899701_);}
	.st60{clip-path:url(#SVGID_00000130623855277271499030000001748676396289827746_);}
	.st61{clip-path:url(#SVGID_00000064336245424556478870000008970386747213519500_);}
	.st62{clip-path:url(#SVGID_00000120552033922568381760000011493500176883262605_);}
	.st63{clip-path:url(#SVGID_00000154412851545712229540000000786772938244369820_);}
	.st64{clip-path:url(#SVGID_00000021820466328194484100000017465342173513907856_);}
	.st65{clip-path:url(#SVGID_00000119104012121722277210000015536273169113028749_);}
	.st66{clip-path:url(#SVGID_00000047041788863985404950000017722745292507854211_);}
	.st67{clip-path:url(#SVGID_00000119095028526039440420000011583100523190486675_);}
	.st68{clip-path:url(#SVGID_00000054237452598042962170000013840811254987870339_);}
	.st69{clip-path:url(#SVGID_00000004546941655086351440000002241125128883498924_);}
	.st70{clip-path:url(#SVGID_00000022553401241404658190000007474859295296577431_);}
	.st71{clip-path:url(#SVGID_00000039106495893402973030000016052597954610707344_);}
	.st72{clip-path:url(#SVGID_00000028305078145330865340000013634092553607880353_);}
	.st73{clip-path:url(#SVGID_00000083783643790658162110000017380364128766305947_);}
	.st74{clip-path:url(#SVGID_00000081639611811064799190000010568764544799498670_);}
	.st75{opacity:0.3;clip-path:url(#SVGID_00000081639611811064799190000010568764544799498670_);}
</style>
<g>
	<g>
		<g>
			<g>
				<g>
					<g>
						<g>
							<g>
								<g>
									<g>
										<path class="st2" d="M20,8.5c3.7,0,4.2,0,5.7,0.1c1.4,0.1,2.1,0.3,2.6,0.5c0.7,0.3,1.1,0.6,1.6,1c0.5,0.5,0.8,1,1,1.6
											c0.2,0.5,0.4,1.2,0.5,2.6c0.1,1.5,0.1,1.9,0.1,5.7c0,3.7,0,4.2-0.1,5.7c-0.1,1.4-0.3,2.1-0.5,2.6c-0.3,0.7-0.6,1.1-1,1.6
											c-0.5,0.5-1,0.8-1.6,1c-0.5,0.2-1.2,0.4-2.6,0.5c-1.5,0.1-1.9,0.1-5.7,0.1s-4.2,0-5.7-0.1c-1.4-0.1-2.1-0.3-2.6-0.5
											c-0.7-0.3-1.1-0.6-1.6-1c-0.5-0.5-0.8-1-1-1.6c-0.2-0.5-0.4-1.2-0.5-2.6c-0.1-1.5-0.1-1.9-0.1-5.7c0-3.7,0-4.2,0.1-5.7
											c0.1-1.4,0.3-2.1,0.5-2.6c0.3-0.7,0.6-1.1,1-1.6c0.5-0.5,1-0.8,1.6-1c0.5-0.2,1.2-0.4,2.6-0.5C15.8,8.5,16.3,8.5,20,8.5
											 M20,6c-3.8,0-4.3,0-5.8,0.1c-1.5,0.1-2.5,0.3-3.4,0.7C9.9,7.1,9.1,7.6,8.3,8.3c-0.8,0.8-1.3,1.6-1.6,2.5
											c-0.3,0.9-0.6,1.9-0.7,3.4C6,15.7,6,16.2,6,20c0,3.8,0,4.3,0.1,5.8c0.1,1.5,0.3,2.5,0.7,3.4c0.4,0.9,0.8,1.7,1.6,2.5
											c0.8,0.8,1.6,1.3,2.5,1.6c0.9,0.3,1.9,0.6,3.4,0.7c1.5,0.1,2,0.1,5.8,0.1c3.8,0,4.3,0,5.8-0.1c1.5-0.1,2.5-0.3,3.4-0.7
											c0.9-0.4,1.7-0.8,2.5-1.6c0.8-0.8,1.3-1.6,1.6-2.5c0.3-0.9,0.6-1.9,0.7-3.4c0.1-1.5,0.1-2,0.1-5.8c0-3.8,0-4.3-0.1-5.8
											c-0.1-1.5-0.3-2.5-0.7-3.4c-0.4-0.9-0.8-1.7-1.6-2.5c-0.8-0.8-1.6-1.3-2.5-1.6c-0.9-0.3-1.9-0.6-3.4-0.7
											C24.3,6,23.8,6,20,6"/>
									</g>
								</g>
								<g>
									<g>
										<path class="st2" d="M20,12.8c-4,0-7.2,3.2-7.2,7.2c0,4,3.2,7.2,7.2,7.2c4,0,7.2-3.2,7.2-7.2C27.2,16,24,12.8,20,12.8
											 M20,24.7c-2.6,0-4.7-2.1-4.7-4.7c0-2.6,2.1-4.7,4.7-4.7c2.6,0,4.7,2.1,4.7,4.7C24.7,22.6,22.6,24.7,20,24.7"/>
									</g>
								</g>
								<g>
									<path class="st2" d="M29.2,12.5c0,0.9-0.8,1.7-1.7,1.7c-0.9,0-1.7-0.8-1.7-1.7c0-0.9,0.8-1.7,1.7-1.7
										C28.4,10.8,29.2,11.6,29.2,12.5"/>
								</g>
							</g>
						</g>
					</g>
				</g>
			</g>
		</g>
	</g>
</g>
</svg>
