<?xml version="1.0" encoding="utf-8"?>
<!-- Generator: Adobe Illustrator 27.5.0, SVG Export Plug-In . SVG Version: 6.00 Build 0)  -->
<svg version="1.1" id="レイヤー_1" xmlns="http://www.w3.org/2000/svg" xmlns:xlink="http://www.w3.org/1999/xlink" x="0px"
	 y="0px" viewBox="0 0 40 40" style="enable-background:new 0 0 40 40;" xml:space="preserve">
<style type="text/css">
	.st0{clip-path:url(#SVGID_00000173843767550646575660000015605730794152168620_);}
	.st1{opacity:0.3;clip-path:url(#SVGID_00000173843767550646575660000015605730794152168620_);}
	.st2{fill:#FFFFFF;}
	.st3{clip-path:url(#SVGID_00000068637237798295917770000008867692100550129581_);}
	.st4{fill:#41B450;}
	.st5{fill:none;stroke:#A0A0A0;stroke-width:0.4176;stroke-miterlimit:10;}
	.st6{fill:url(#SVGID_00000069394307411252664170000005102644498848291514_);}
	.st7{fill:url(#SVGID_00000009580863087830085740000017253518868322135199_);}
	.st8{fill:url(#SVGID_00000053512220265892291140000018385342900681465766_);}
	.st9{fill:url(#SVGID_00000026851144409294611360000014572778842698468272_);}
	.st10{fill:url(#SVGID_00000044142233424429322840000017233746531135319190_);}
	.st11{fill-rule:evenodd;clip-rule:evenodd;fill:#7D0000;}
	.st12{fill-rule:evenodd;clip-rule:evenodd;fill:#FBE2CC;}
	.st13{fill-rule:evenodd;clip-rule:evenodd;fill:#EA5F39;}
	.st14{fill-rule:evenodd;clip-rule:evenodd;fill:#FFFFFF;}
	.st15{fill-rule:evenodd;clip-rule:evenodd;fill:#927054;}
	.st16{fill-rule:evenodd;clip-rule:evenodd;fill:#51A4DB;}
	.st17{fill:#F3EFE5;}
	.st18{fill:none;stroke:#FFFFFF;stroke-width:0.5965;stroke-miterlimit:10;}
	.st19{fill:#004B43;}
	.st20{fill:none;stroke:#373737;stroke-width:0.5194;stroke-miterlimit:10;}
	.st21{fill:#373737;stroke:#FFFFFF;stroke-width:0.5965;stroke-miterlimit:10;}
	.st22{fill:#32326E;stroke:#FFFFFF;stroke-width:0.5965;stroke-miterlimit:10;}
	.st23{fill:#82283C;stroke:#FFFFFF;stroke-width:0.5965;stroke-miterlimit:10;}
	.st24{fill:#40A79E;}
	.st25{fill:none;stroke:#FFFFFF;stroke-width:2;stroke-miterlimit:10;}
	.st26{fill:#8682AD;}
	.st27{fill:#DC8C46;}
	.st28{fill:#CE7FAE;}
	.st29{fill:#BC85B9;}
	.st30{fill:#C79F71;}
	.st31{fill:#F473AC;}
	.st32{fill:none;stroke:#8EE28C;stroke-width:1.3433;stroke-linecap:round;stroke-linejoin:round;stroke-miterlimit:10;}
	.st33{clip-path:url(#SVGID_00000003808479739326986800000003286469305204365230_);}
	.st34{fill:#8BD1EF;}
	.st35{fill:#A0A0A0;}
	.st36{fill:#81CE81;}
	.st37{fill:none;stroke:#000000;stroke-width:0.2768;}
	.st38{fill:none;stroke:#FFFFFF;stroke-width:1.6611;stroke-linecap:round;stroke-linejoin:round;}
	.st39{clip-path:url(#SVGID_00000125562770386186886890000008040698952496059314_);}
	.st40{fill:url(#SVGID_00000065774477025400959660000012518468814211061906_);}
	.st41{clip-path:url(#SVGID_00000044147790310763525330000011123760129240183217_);}
	.st42{clip-path:url(#SVGID_00000102519944071955303030000005436828063772206783_);}
	.st43{fill:url(#SVGID_00000042713746180951265200000010523831973382424245_);}
	.st44{clip-path:url(#SVGID_00000006706624178630511110000016881957638850934448_);}
	.st45{fill:url(#SVGID_00000080189388220220767460000013916194769373829274_);}
	.st46{clip-path:url(#SVGID_00000110468113854048562450000017546833948602021267_);}
	.st47{fill:url(#SVGID_00000037694218814592444430000006954608862686185646_);}
	.st48{clip-path:url(#SVGID_00000076567333875803522610000011851001734391274133_);}
	.st49{clip-path:url(#SVGID_00000114795519326747631990000005937089962818435243_);}
	.st50{clip-path:url(#SVGID_00000049904129105833558010000016165709603205452212_);}
	.st51{clip-path:url(#SVGID_00000000192733936402771830000003344522220274644376_);}
	.st52{clip-path:url(#SVGID_00000031908436213459179350000009892664621766297247_);}
	.st53{clip-path:url(#SVGID_00000054237788732060647210000003700849417439419059_);}
	.st54{clip-path:url(#SVGID_00000074439009458460385150000009805923016874319492_);}
	.st55{clip-path:url(#SVGID_00000076582120029795773900000011461399455543457704_);}
	.st56{clip-path:url(#SVGID_00000039101326276143471670000009802060739447079847_);}
	.st57{clip-path:url(#SVGID_00000017511483511528286670000000465774385973536903_);}
	.st58{clip-path:url(#SVGID_00000009584403481446871430000003285576105840708029_);}
	.st59{clip-path:url(#SVGID_00000029757651959775263730000009525589522000944514_);}
	.st60{clip-path:url(#SVGID_00000059297050966471709010000003274520902528006784_);}
	.st61{clip-path:url(#SVGID_00000114075830300860472000000003585770527955783839_);}
	.st62{clip-path:url(#SVGID_00000026846520504094354570000010877318579442683548_);}
	.st63{clip-path:url(#SVGID_00000070080016206912576270000003964521560789723282_);}
	.st64{clip-path:url(#SVGID_00000033358728105591306140000005696770419565569413_);}
	.st65{clip-path:url(#SVGID_00000171684627458163987170000005745156625624956549_);}
	.st66{clip-path:url(#SVGID_00000093881076721270367700000011396809757337622683_);}
	.st67{clip-path:url(#SVGID_00000056414873526612639320000001539671694288015246_);}
	.st68{clip-path:url(#SVGID_00000052825675140108160830000017419279702647514264_);}
	.st69{clip-path:url(#SVGID_00000082332354177369677610000011789495926525555363_);}
	.st70{clip-path:url(#SVGID_00000106121843844851205920000001553061988654566800_);}
	.st71{clip-path:url(#SVGID_00000064343132039145973580000008394017503129966745_);}
	.st72{clip-path:url(#SVGID_00000061465009480133438620000009177799196198223251_);}
	.st73{clip-path:url(#SVGID_00000067914466801471423590000016777524541604905619_);}
	.st74{clip-path:url(#SVGID_00000086669567611240357430000017166145228120150419_);}
	.st75{opacity:0.3;clip-path:url(#SVGID_00000086669567611240357430000017166145228120150419_);}
</style>
<g>
	<g>
		<g>
			<path class="st4" d="M14.6,13.9c2.1,0,3.9-1.7,3.9-3.9c0-2.1-1.7-3.9-3.9-3.9s-3.9,1.7-3.9,3.9C10.7,12.1,12.5,13.9,14.6,13.9z"
				/>
			<path class="st4" d="M28.8,26.4c-0.1-5.2-1.9-7.8-3.2-10c0.1-0.4,2.2-6.3-1-11.1c-0.4-0.5-0.8-1.1-1.2-1.5
				c-0.4-0.5-1.9-1.7-2.7-2.1c-1.4-0.7-3.1-1.1-3.1-1.1c-0.9-0.2-1.7,0.3-1.9,1.2c-0.2,0.9,0.2,1.5,1.2,1.9c0,0,2.5,1.1,3.5,2.7
				c0.9,1.5,2.2,4.8-1,6.7c-2.4,1.4-7.3,4.3-7.9,7.5c-1.2,5.6,4,7.5,4.2,7.6c0.4,0.2,0.7,0.2,0.7,0.2c0.7,0.3,1.5,0,1.8-0.6
				c0.4-0.7,0.1-1.7-0.5-2c-0.6-0.3-2.4-1.2-2.5-2.6c-0.2-1.3,0.9-2,1.7-2c1.1,0.4,2.6,1.4,2.6,5.3c0,0.1-0.5,11.5-0.5,11.5
				c0,0.7,0.5,1.4,1.2,1.5c0.8,0.2,1.6-0.4,1.7-1.2l2.2-10.4l2.2,10.4c0.1,0.7,0.8,1.2,1.5,1.2c0.8,0,1.5-0.7,1.4-1.6
				C29.3,37.9,28.8,26.5,28.8,26.4z"/>
		</g>
	</g>
</g>
</svg>
