<?xml version="1.0" encoding="utf-8"?>
<!-- Generator: Adobe Illustrator 27.5.0, SVG Export Plug-In . SVG Version: 6.00 Build 0)  -->
<svg version="1.1" id="レイヤー_1" xmlns="http://www.w3.org/2000/svg" xmlns:xlink="http://www.w3.org/1999/xlink" x="0px"
	 y="0px" viewBox="0 0 125 90" style="enable-background:new 0 0 125 90;" xml:space="preserve">
<style type="text/css">
	.st0{clip-path:url(#SVGID_00000116932332387238627730000015305918206968689844_);}
	.st1{opacity:0.3;clip-path:url(#SVGID_00000116932332387238627730000015305918206968689844_);}
	.st2{fill:#FFFFFF;}
	.st3{clip-path:url(#SVGID_00000053507823593094633350000011098482961998749845_);}
	.st4{fill:#41B450;}
	.st5{fill:none;stroke:#A0A0A0;stroke-width:0.4176;stroke-miterlimit:10;}
	.st6{fill:url(#SVGID_00000122722647450176630510000016596986420788971423_);}
	.st7{fill:url(#SVGID_00000100363115590123823940000010430235301330668161_);}
	.st8{fill:url(#SVGID_00000024699973394516014120000013565788036946844334_);}
	.st9{fill:url(#SVGID_00000129891992479713486940000006014537156128279966_);}
	.st10{fill:url(#SVGID_00000056410867125288119080000014313845710000932243_);}
	.st11{fill-rule:evenodd;clip-rule:evenodd;fill:#7D0000;}
	.st12{fill-rule:evenodd;clip-rule:evenodd;fill:#FBE2CC;}
	.st13{fill-rule:evenodd;clip-rule:evenodd;fill:#EA5F39;}
	.st14{fill-rule:evenodd;clip-rule:evenodd;fill:#FFFFFF;}
	.st15{fill-rule:evenodd;clip-rule:evenodd;fill:#927054;}
	.st16{fill-rule:evenodd;clip-rule:evenodd;fill:#51A4DB;}
	.st17{fill:#F3EFE5;}
	.st18{fill:none;stroke:#FFFFFF;stroke-width:0.5965;stroke-miterlimit:10;}
	.st19{fill:#004B43;}
	.st20{fill:none;stroke:#373737;stroke-width:0.5194;stroke-miterlimit:10;}
	.st21{fill:#373737;stroke:#FFFFFF;stroke-width:0.5965;stroke-miterlimit:10;}
	.st22{fill:#32326E;stroke:#FFFFFF;stroke-width:0.5965;stroke-miterlimit:10;}
	.st23{fill:#82283C;stroke:#FFFFFF;stroke-width:0.5965;stroke-miterlimit:10;}
	.st24{fill:#40A79E;}
	.st25{fill:none;stroke:#FFFFFF;stroke-width:2;stroke-miterlimit:10;}
	.st26{fill:#8682AD;}
	.st27{fill:#DC8C46;}
	.st28{fill:#CE7FAE;}
	.st29{fill:#BC85B9;}
	.st30{fill:#C79F71;}
	.st31{fill:#F473AC;}
	.st32{fill:none;stroke:#8EE28C;stroke-width:1.3433;stroke-linecap:round;stroke-linejoin:round;stroke-miterlimit:10;}
	.st33{clip-path:url(#SVGID_00000018197587984738837580000008554271905170454672_);}
	.st34{fill:#8BD1EF;}
	.st35{fill:#A0A0A0;}
	.st36{fill:#81CE81;}
	.st37{fill:none;stroke:#000000;stroke-width:0.2768;}
	.st38{fill:none;stroke:#FFFFFF;stroke-width:1.6611;stroke-linecap:round;stroke-linejoin:round;}
	.st39{clip-path:url(#SVGID_00000070088275594658933000000010362687585043462073_);}
	.st40{fill:url(#SVGID_00000111186637570317072180000007602319872096237193_);}
	.st41{clip-path:url(#SVGID_00000168817508871867819650000015167907086707129259_);}
	.st42{clip-path:url(#SVGID_00000153665743319011833750000008844067327328947619_);}
	.st43{fill:url(#SVGID_00000071545440930631742640000005229256384725485194_);}
	.st44{clip-path:url(#SVGID_00000129916329179382311550000017801337574348065455_);}
	.st45{fill:url(#SVGID_00000162323037965634930720000015504162941883206077_);}
	.st46{clip-path:url(#SVGID_00000073701514832896671180000009311396656094421649_);}
	.st47{fill:url(#SVGID_00000139274119393617703350000000151063027225539480_);}
	.st48{clip-path:url(#SVGID_00000043417054497875075550000003662189465053117322_);}
	.st49{clip-path:url(#SVGID_00000098900487766287562670000006099787913252549538_);}
	.st50{clip-path:url(#SVGID_00000132806904410501064950000012305126005807004332_);}
	.st51{clip-path:url(#SVGID_00000080197595153895215890000003248686484430054039_);}
	.st52{clip-path:url(#SVGID_00000135661430807649125210000017731280744227422396_);}
	.st53{clip-path:url(#SVGID_00000040534003951669910540000015448119530271353765_);}
	.st54{clip-path:url(#SVGID_00000139992394305550498160000014099951469214932406_);}
	.st55{clip-path:url(#SVGID_00000165200290431311960220000017639562255179820423_);}
	.st56{clip-path:url(#SVGID_00000075153618938763143860000016057719455089763722_);}
	.st57{clip-path:url(#SVGID_00000183927396971303799120000005612929942086050986_);}
	.st58{clip-path:url(#SVGID_00000005969029852740534720000000589953727663574454_);}
	.st59{clip-path:url(#SVGID_00000079459980408459372970000011202910048482189962_);}
	.st60{clip-path:url(#SVGID_00000130616463631947308920000001600382985472278457_);}
	.st61{clip-path:url(#SVGID_00000012436476953930315620000009746590360114785436_);}
	.st62{clip-path:url(#SVGID_00000013878176227237354130000005494997375537008553_);}
	.st63{clip-path:url(#SVGID_00000117661150926255984070000015923924241047730614_);}
	.st64{clip-path:url(#SVGID_00000039130333503495165590000010069514981011136446_);}
	.st65{clip-path:url(#SVGID_00000103264759081812422400000005182887373386057861_);}
	.st66{clip-path:url(#SVGID_00000102540744521149185730000013099912038195278210_);}
	.st67{clip-path:url(#SVGID_00000030478444449224172730000009149234122638037141_);}
	.st68{clip-path:url(#SVGID_00000173134721814399609040000017819426348824254651_);}
	.st69{clip-path:url(#SVGID_00000034076198331814206810000015988475577946552502_);}
	.st70{clip-path:url(#SVGID_00000098899379938198087320000009167010216482359731_);}
	.st71{clip-path:url(#SVGID_00000116919061218200463360000005559453409860538774_);}
	.st72{clip-path:url(#SVGID_00000063615269729612845110000006680419853943944064_);}
	.st73{clip-path:url(#SVGID_00000114752026579337668950000017116990214827559856_);}
	.st74{clip-path:url(#SVGID_00000131345584429627505090000003583550634213813941_);}
	.st75{opacity:0.3;clip-path:url(#SVGID_00000131345584429627505090000003583550634213813941_);}
</style>
<g>
	<g>
		<g>
			<g>
				<path class="st4" d="M10.8,81.1h6.8l-0.8-2.4c-0.3-0.9-0.7-1.7-1-2.5c-0.3-0.8-0.7-1.5-1.2-2.2c-0.4-0.6-0.8-1-1.3-1
					c-0.5,0-1,0.4-1.4,1c-0.4,0.6-0.8,1.4-1.1,2.2c-0.3,0.8-0.7,1.6-1,2.5l-3.5,9.7H1.3L6,76.5c1-2.4,2-4.4,3-5.9
					c1-1.5,2.4-2.2,4.3-2.2c1.9,0,3.3,0.8,4.3,2.2c1,1.5,2,3.4,3,5.9l4.6,11.9h-4.9l-1-2.9h-8.3V81.1z"/>
				<path class="st4" d="M31.8,69.1v19.3h-4.4V69.1H31.8z M33.8,77.7c0.6-1,1.8-1.8,3.6-2.2l10.7-2.8v4.4l-9.9,2.6
					c-0.6,0.2-0.9,0.6-0.9,1.2c0,0.6,0.3,1,0.9,1.2l9.9,2.6v4.5l-10.7-2.9c-1.8-0.5-3-1.3-3.6-2.3c-0.6-1-0.9-2.1-0.9-3.2
					C32.8,79.8,33.1,78.7,33.8,77.7z"/>
				<path class="st4" d="M52.4,77.7c0.4-1,1.1-2,2.1-2.8c1-0.8,2.2-1.3,3.7-1.3h14v4.4H58.1c-0.4,0-0.8,0.2-1.1,0.5
					c-0.3,0.3-0.5,0.7-0.7,1.2c-0.2,0.5-0.2,0.9-0.2,1.3v7.5h-4.4v-7.5h0C51.7,79.8,52,78.7,52.4,77.7z"/>
				<path class="st4" d="M82.5,88.3c-1.9-0.1-3.3-0.5-4.3-1.3c-1-0.8-1.7-1.8-2.1-2.8c-0.4-1-0.6-2.1-0.6-3.2c0-1.1,0.2-2.2,0.6-3.3
					c0.4-1,1.1-2,2.1-2.8c1-0.8,2.2-1.3,3.7-1.3h10.5c1.5,0,2.8,0.4,3.7,1.3c1,0.8,1.7,1.8,2.1,2.8c0.4,1.1,0.6,2.1,0.6,3.3
					c0,1.1-0.2,2.1-0.6,3.2c-0.4,1.1-1.1,2-2.1,2.8c-1,0.8-2.4,1.3-4.3,1.3H82.5z M81.7,77.9c-0.4,0-0.8,0.2-1.1,0.5
					c-0.3,0.3-0.5,0.7-0.7,1.2c-0.1,0.4-0.2,0.9-0.2,1.3c0,0.5,0.1,0.9,0.2,1.3c0.1,0.4,0.4,0.8,0.7,1.2c0.3,0.3,0.7,0.5,1.1,0.5
					h10.8c0.4,0,0.8-0.2,1.1-0.5c0.3-0.3,0.5-0.7,0.7-1.2c0.1-0.4,0.2-0.9,0.2-1.3c0-0.4-0.1-0.9-0.2-1.3c-0.1-0.4-0.4-0.8-0.7-1.2
					c-0.3-0.3-0.7-0.5-1.1-0.5H81.7z"/>
				<path class="st4" d="M123.4,77.3h-16.2c-0.3,0-0.5,0.1-0.7,0.2c-0.2,0.1-0.3,0.2-0.4,0.3c-0.1,0.1-0.1,0.2-0.1,0.3
					c0,0.1,0,0.2,0.1,0.3c0.1,0.1,0.2,0.2,0.4,0.3c0.2,0.1,0.4,0.2,0.7,0.2h10.6c1.4,0,2.5,0.3,3.4,0.8c0.9,0.5,1.5,1.1,1.9,1.8
					c0.4,0.7,0.6,1.4,0.6,2.1c0,0.7-0.2,1.3-0.6,2c-0.4,0.7-1,1.3-1.9,1.8c-0.9,0.5-2,0.8-3.4,0.8c-0.2,0-0.4,0-0.5,0h-15.1v-3.7
					h15.8c0.3,0,0.6,0,0.8-0.1c0.2-0.1,0.4-0.2,0.5-0.4c0.1-0.1,0.2-0.3,0.2-0.4c0-0.1-0.1-0.2-0.2-0.3c-0.1-0.2-0.3-0.3-0.5-0.4
					c-0.2-0.1-0.5-0.2-0.8-0.2h-10.6c-1.3,0-2.3-0.3-3.1-0.8c-0.8-0.5-1.4-1.1-1.8-1.8c-0.3-0.7-0.5-1.3-0.5-2c0-0.7,0.2-1.3,0.5-2
					c0.4-0.7,0.9-1.2,1.8-1.7c0.8-0.5,1.8-0.8,3.1-0.8c0.2,0,0.4,0,0.5,0h15.5V77.3z"/>
			</g>
			<g>
				<path class="st4" d="M117.3,21.8c-0.2,0.3-0.4,0.5-0.7,0.8c0,0,0,0,0,0.1l0,0c-0.6,0.7-1.2,1.3-2,2c-0.6,0.7-1.3,1.3-1.9,1.9
					c-0.9,0.8-1.8,1.5-2.7,2.3c-2.1,1.6-4.4,3.1-6.8,4.4c0.1,1,0.1,2-0.1,3.1c-0.3,2.2-1.2,4.2-2.5,6c0,0.1-0.1,0.2-0.2,0.3
					c-0.3,0.4-0.7,0.8-1,1.3c-1.1,1-2.5,0.7-4.5-0.9c-0.2-0.2-0.5-0.5-0.7-0.7c-1.2-1.3-2.4-2.6-3.6-4c-4.7,1.4-9.5,2.4-14.2,3.3
					c1.8,2.8,3.6,5.4,5.3,7.6c1.5,2.2,4.6,2.8,7,3.1c0,0,0,0,0,0c4.9,0.6,13.1,2,22.5,5.5c-1.5-1-3.1-2.3-5-3.8
					c-1.7-1.5-1.3-3.1,1-4.2l0,0c5.3-2.9,8.7-6.8,9.4-11.4c0.3-1.9,0.1-3.8-0.5-5.7c0,0,0,0,0,0c-0.3-1.2-1.4-4-0.4-5.7l0,0
					c0.8-1.5,1.7-3.3,2.4-5.3C118.3,20.9,118,21,117.3,21.8z"/>
				<path class="st4" d="M115.8,15.8c-0.3,0.2-0.6,0.4-1,0.5c0,0,0,0-0.1,0l0,0c-2.3,1.3-5.2,2.7-8.5,4.2
					C98.6,14.9,87.2,10.2,74,7.9c0,0,0,0,0,0l0,0c-1-0.2-2-0.3-3-0.5c-0.9-0.1-1.7-0.2-2.6-0.3c0,0,0,0,0,0
					c-0.1-0.2-0.2-0.4-0.4-0.6c-0.1-0.2-0.3-0.4-0.4-0.7c-0.5-1-1-2-1.5-2.9c0-0.1-0.1-0.2-0.2-0.3c-1.4-2.8-2.9-1.9-3.8,0l0,0
					c-0.7,1.4-1.5,2.9-2.3,4.3l-1.1,0.3c-0.6,0.1-1.3,0.1-1.9,0.2c-27.2,4-47,17.2-45.1,30.3c0.6,4,2.7,8.1,6.9,10.9c0,0,0,0,0,0
					c-4,3.2-8,7-12.1,11.8c0,0,0.6-0.3,1.6-0.8c1.6-0.9,3.7-2.1,6.2-3.6c2.6-1.5,5.5-3.2,8.8-5c1.5-0.8,3.1-1.6,4.8-2.4
					c1.2-0.6,2.5-1.2,3.7-1.7c5.3-2.3,11-4.2,16.8-5.2c1.1-0.2,2.3-0.3,3.6-0.5l6.9-0.8c-2.1,1.6-3.4,4-3.4,6.8
					c0,4.7,3.8,8.6,8.6,8.6s8.6-3.8,8.6-8.6c0-3.5-2.1-6.6-5.2-7.9l1.1-0.1c0,0,0,0,0,0c1.9-0.3,3.9-0.5,5.8-0.9
					c4.6-0.7,9.2-1.7,13.8-2.9c5-1.4,9.9-3.1,14.4-5.4c3-1.5,5.8-3.3,8.4-5.4c2-1.7,3.9-3.5,5.6-5.6c0.4-0.4,0.7-0.9,1-1.4
					c0-0.1,0.1-0.1,0.2-0.2c0.2-0.3,0.4-0.6,0.6-0.9C119.1,14.9,118.1,14.6,115.8,15.8z M63.9,45.9c-1.7,0-3-1.4-3-3s1.4-3,3-3
					s3,1.4,3,3S65.6,45.9,63.9,45.9z M88.2,27.4c-3.6,1-6.1,0.4-8.3-2.5c-3.4-4.6-6.6-9.4-9.5-14.2c-0.7-2,0.9-2.8,3.2-2.3
					c0,0,0.1,0,0.1,0c8.6,2.5,15.9,6.3,21.1,10.8c2.6,2.5,3,3.6-0.1,5.9C92.7,25.9,90.5,26.7,88.2,27.4z M65.7,23.4
					C65.8,23.4,65.8,23.4,65.7,23.4c0.2,0.3,0.3,0.5,0.4,0.7c-0.2-0.4-0.6-1,0,0.1c0,0,0,0,0,0c0.4,0.8,0.9,1.7,1.4,2.6l0,0
					c0,0,0,0.1,0.1,0.1c0.1,0.2,0.2,0.4,0.4,0.6c1.3,2.4,2.1,4.3-0.1,4.9c-0.4,0.1-0.8,0.1-1.2,0.2c-1.7,0.2-3.5,0.4-5.4,0.6
					c0,0,0,0,0,0c-3.7,0.4-3.6-1.8-1.7-5.1l0,0c1-1.8,1.9-3.5,2.6-4.8l0,0C63.3,21.5,64.4,20.9,65.7,23.4z M41.8,33
					c-1.8,2.1-4.7,5.1-7.6,6.2l0,0c-0.5,0.2-1,0.4-1.5,0.6c0,0,0,0,0,0c-2.5,1-5.8,2.1-7.8-2.2c-0.1-0.5-0.2-0.9-0.3-1.4
					C23.1,25.4,34.9,14.3,52.4,8.9c3.7-1.1,6.8-1.2,4.3,3.3C52.2,19.5,47.1,26.6,41.8,33z"/>
			</g>
		</g>
	</g>
</g>
</svg>
