<?xml version="1.0" encoding="utf-8"?>
<!-- Generator: Adobe Illustrator 27.5.0, SVG Export Plug-In . SVG Version: 6.00 Build 0)  -->
<svg version="1.1" id="レイヤー_1" xmlns="http://www.w3.org/2000/svg" xmlns:xlink="http://www.w3.org/1999/xlink" x="0px"
	 y="0px" viewBox="0 0 130 130" style="enable-background:new 0 0 130 130;" xml:space="preserve">
<style type="text/css">
	.st0{clip-path:url(#SVGID_00000140735128055674259720000015290493812102450585_);}
	.st1{opacity:0.3;clip-path:url(#SVGID_00000140735128055674259720000015290493812102450585_);}
	.st2{fill:#FFFFFF;}
	.st3{clip-path:url(#SVGID_00000154401418330836906740000008901296935237944479_);}
	.st4{fill:#41B450;}
	.st5{fill:none;stroke:#A0A0A0;stroke-width:0.4176;stroke-miterlimit:10;}
	.st6{fill:url(#SVGID_00000112621263632935521660000002493433091465327490_);}
	.st7{fill:url(#SVGID_00000058583139467526227980000005602840671016751019_);}
	.st8{fill:url(#SVGID_00000076581365191601024130000012823243324923416740_);}
	.st9{fill:url(#SVGID_00000053504951334551724700000000994468113762385028_);}
	.st10{fill:url(#SVGID_00000158009587427374543550000002974774950775044753_);}
	.st11{fill-rule:evenodd;clip-rule:evenodd;fill:#7D0000;}
	.st12{fill-rule:evenodd;clip-rule:evenodd;fill:#FBE2CC;}
	.st13{fill-rule:evenodd;clip-rule:evenodd;fill:#EA5F39;}
	.st14{fill-rule:evenodd;clip-rule:evenodd;fill:#FFFFFF;}
	.st15{fill-rule:evenodd;clip-rule:evenodd;fill:#927054;}
	.st16{fill-rule:evenodd;clip-rule:evenodd;fill:#51A4DB;}
	.st17{fill:#F3EFE5;}
	.st18{fill:none;stroke:#FFFFFF;stroke-width:0.5965;stroke-miterlimit:10;}
	.st19{fill:#004B43;}
	.st20{fill:none;stroke:#373737;stroke-width:0.5194;stroke-miterlimit:10;}
	.st21{fill:#373737;stroke:#FFFFFF;stroke-width:0.5965;stroke-miterlimit:10;}
	.st22{fill:#32326E;stroke:#FFFFFF;stroke-width:0.5965;stroke-miterlimit:10;}
	.st23{fill:#82283C;stroke:#FFFFFF;stroke-width:0.5965;stroke-miterlimit:10;}
	.st24{fill:#40A79E;}
	.st25{fill:none;stroke:#FFFFFF;stroke-width:2;stroke-miterlimit:10;}
	.st26{fill:#8682AD;}
	.st27{fill:#DC8C46;}
	.st28{fill:#CE7FAE;}
	.st29{fill:#BC85B9;}
	.st30{fill:#C79F71;}
	.st31{fill:#F473AC;}
	.st32{fill:none;stroke:#8EE28C;stroke-width:1.3433;stroke-linecap:round;stroke-linejoin:round;stroke-miterlimit:10;}
	.st33{clip-path:url(#SVGID_00000164474048070856017720000010401623919118042772_);}
	.st34{fill:#8BD1EF;}
	.st35{fill:#A0A0A0;}
	.st36{fill:#81CE81;}
	.st37{fill:none;stroke:#000000;stroke-width:0.2768;}
	.st38{fill:none;stroke:#FFFFFF;stroke-width:1.6611;stroke-linecap:round;stroke-linejoin:round;}
	.st39{clip-path:url(#SVGID_00000176030198716124350360000012654157599313094328_);}
	.st40{fill:url(#SVGID_00000078035147144930159940000015258526606217634974_);}
	.st41{clip-path:url(#SVGID_00000016049020952854494870000001329826685263605130_);}
	.st42{clip-path:url(#SVGID_00000158710794961124273640000014586112727460673156_);}
	.st43{fill:url(#SVGID_00000088107366602106791890000003669116410111493567_);}
	.st44{clip-path:url(#SVGID_00000093865732481541437630000018106000488680237185_);}
	.st45{fill:url(#SVGID_00000003075384640047305870000016173076563740886666_);}
	.st46{clip-path:url(#SVGID_00000082363276104515875870000004316701758654388879_);}
	.st47{fill:url(#SVGID_00000163795792605735309200000013855564215769478303_);}
	.st48{clip-path:url(#SVGID_00000113349119515864371100000006655236171564561845_);}
	.st49{clip-path:url(#SVGID_00000018228988457895509670000009523261739073671560_);}
	.st50{clip-path:url(#SVGID_00000041261238314485827490000010698826257015391649_);}
	.st51{clip-path:url(#SVGID_00000087410627658433015670000005703716614562619015_);}
	.st52{clip-path:url(#SVGID_00000145059887362068142530000010309842737978650804_);}
	.st53{clip-path:url(#SVGID_00000066473842733055618720000017461762583006011271_);}
	.st54{clip-path:url(#SVGID_00000005988365378224317990000015703117995580105638_);}
	.st55{clip-path:url(#SVGID_00000088124148090876920980000002105447992869072564_);}
	.st56{clip-path:url(#SVGID_00000083079563557432273230000010559717198801564092_);}
	.st57{clip-path:url(#SVGID_00000124131918587541261460000017155604933900647326_);}
	.st58{clip-path:url(#SVGID_00000115487392129464411040000015980856788777129618_);}
	.st59{clip-path:url(#SVGID_00000121253022473085679220000015848309367069729712_);}
	.st60{clip-path:url(#SVGID_00000047045642107338349500000007398852591499218363_);}
	.st61{clip-path:url(#SVGID_00000091709308160565990790000011824894005041661091_);}
	.st62{clip-path:url(#SVGID_00000096761571717091259190000008489000623847636391_);}
	.st63{clip-path:url(#SVGID_00000064349683298564889620000001721112569220251031_);}
	.st64{clip-path:url(#SVGID_00000017506674682158206800000008821469832293639584_);}
	.st65{clip-path:url(#SVGID_00000125578060862234457780000000557256170609336195_);}
	.st66{clip-path:url(#SVGID_00000007390901342271447140000001292512711625615761_);}
	.st67{clip-path:url(#SVGID_00000109714173596200969700000013523155845845845148_);}
	.st68{clip-path:url(#SVGID_00000039121083563897880820000012967019784928529577_);}
	.st69{clip-path:url(#SVGID_00000070083490383787081810000007670958841102028722_);}
	.st70{clip-path:url(#SVGID_00000180341507603832440470000006596767889732301966_);}
	.st71{clip-path:url(#SVGID_00000029728573627893364140000004075323525260540087_);}
	.st72{clip-path:url(#SVGID_00000093160383461641591160000012597177180147160479_);}
	.st73{clip-path:url(#SVGID_00000085251149414819438220000005942891214162248072_);}
	.st74{clip-path:url(#SVGID_00000012439552962595585420000016047142550040499599_);}
	.st75{opacity:0.3;clip-path:url(#SVGID_00000012439552962595585420000016047142550040499599_);}
</style>
<g>
	<g>
		<g>
			<g>
				<g>
					<g>
						<path class="st2" d="M10.9,86.6H18l-0.9-2.5c-0.4-0.9-0.7-1.8-1.1-2.6c-0.4-0.8-0.8-1.6-1.2-2.3c-0.4-0.7-0.9-1-1.4-1.1
							c-0.5,0-1,0.4-1.5,1.1c-0.4,0.7-0.8,1.4-1.2,2.3c-0.4,0.8-0.7,1.7-1.1,2.6L6,94.2H1l4.8-12.4c1-2.5,2.1-4.6,3.1-6.2
							c1-1.5,2.5-2.3,4.5-2.3c1.9,0,3.4,0.8,4.5,2.3c1,1.5,2.1,3.6,3.1,6.2l4.9,12.4h-5.2l-1.1-3.1h-8.7V86.6z"/>
						<path class="st2" d="M32.8,74v20.2h-4.6V74H32.8z M34.9,83.1c0.7-1.1,1.9-1.8,3.8-2.3l11.2-2.9v4.7l-10.4,2.7
							c-0.7,0.2-1,0.7-1,1.3c0,0.6,0.3,1,1,1.3l10.4,2.7v4.8l-11.2-3.1c-1.9-0.5-3.1-1.3-3.8-2.4c-0.6-1.1-1-2.2-1-3.3
							S34.3,84.1,34.9,83.1z"/>
						<path class="st2" d="M54.4,83c0.4-1.1,1.2-2.1,2.2-2.9c1-0.9,2.3-1.3,3.9-1.3h14.7v4.6H60.4c-0.4,0-0.8,0.2-1.1,0.5
							c-0.3,0.4-0.6,0.8-0.7,1.2c-0.2,0.5-0.3,0.9-0.3,1.4v7.8h-4.6v-7.8h0C53.7,85.3,54,84.1,54.4,83z"/>
						<path class="st2" d="M85.9,94.2c-2-0.1-3.5-0.5-4.5-1.4c-1-0.9-1.8-1.9-2.2-3c-0.5-1.1-0.7-2.2-0.7-3.3c0-1.2,0.2-2.3,0.7-3.4
							c0.4-1.1,1.2-2.1,2.2-3c1-0.9,2.3-1.3,3.9-1.3h11c1.6,0,2.9,0.5,3.9,1.3c1,0.9,1.8,1.9,2.2,3c0.4,1.1,0.7,2.2,0.7,3.4
							c0,1.1-0.2,2.2-0.7,3.3c-0.5,1.1-1.2,2.1-2.2,3c-1,0.9-2.5,1.3-4.5,1.4H85.9z M85.1,83.3c-0.4,0-0.8,0.2-1.1,0.5
							c-0.3,0.4-0.5,0.8-0.7,1.2c-0.1,0.5-0.2,0.9-0.2,1.4c0,0.5,0.1,0.9,0.2,1.4c0.1,0.5,0.4,0.9,0.7,1.2c0.3,0.4,0.7,0.5,1.1,0.6
							h11.3c0.4,0,0.8-0.2,1.1-0.6c0.3-0.4,0.5-0.8,0.7-1.2c0.1-0.5,0.2-0.9,0.2-1.4c0-0.5-0.1-0.9-0.2-1.4
							c-0.1-0.5-0.4-0.9-0.7-1.2c-0.3-0.4-0.7-0.5-1.1-0.5H85.1z"/>
						<path class="st2" d="M128.7,82.7h-17c-0.3,0-0.5,0.1-0.7,0.2c-0.2,0.1-0.3,0.2-0.4,0.4c-0.1,0.1-0.1,0.2-0.1,0.3
							c0,0.1,0,0.2,0.1,0.4c0.1,0.1,0.2,0.2,0.4,0.3c0.2,0.1,0.4,0.2,0.7,0.2h11.1c1.4,0,2.6,0.3,3.5,0.8c0.9,0.5,1.6,1.2,2,1.9
							c0.4,0.7,0.6,1.4,0.6,2.2c0,0.7-0.2,1.4-0.6,2.1s-1.1,1.3-2,1.9c-0.9,0.5-2.1,0.8-3.5,0.8c-0.2,0-0.4,0-0.5,0h-15.8v-3.9h16.6
							c0.3,0,0.6,0,0.8-0.1c0.2-0.1,0.4-0.2,0.5-0.4c0.1-0.1,0.2-0.3,0.2-0.4c0-0.1-0.1-0.2-0.2-0.4c-0.1-0.2-0.3-0.3-0.5-0.4
							c-0.2-0.1-0.5-0.2-0.8-0.2H112c-1.3,0-2.4-0.3-3.3-0.8c-0.9-0.5-1.5-1.1-1.8-1.9c-0.4-0.7-0.5-1.4-0.5-2.1
							c0-0.7,0.2-1.4,0.6-2.1c0.4-0.7,1-1.3,1.8-1.8c0.8-0.5,1.9-0.8,3.2-0.8c0.2,0,0.4,0,0.5,0h16.2V82.7z"/>
					</g>
					<g>
						<path class="st2" d="M122.4,24.5c-0.2,0.3-0.5,0.6-0.7,0.9c0,0,0,0,0,0.1l0,0c-0.6,0.7-1.3,1.4-2.1,2.1c-0.6,0.7-1.3,1.3-2,2
							c-0.9,0.8-1.9,1.6-2.8,2.4c-2.2,1.7-4.6,3.2-7.2,4.6c0.1,1.1,0.1,2.1-0.1,3.2c-0.3,2.3-1.2,4.4-2.6,6.3c0,0.1-0.1,0.2-0.2,0.3
							c-0.3,0.4-0.7,0.9-1.1,1.3c-1.2,1-2.6,0.8-4.7-0.9c-0.2-0.3-0.5-0.5-0.7-0.8c-1.2-1.3-2.5-2.7-3.7-4.2
							c-4.9,1.5-9.9,2.6-14.9,3.4c1.9,2.9,3.8,5.6,5.6,8c1.6,2.3,4.8,3,7.3,3.3c0,0,0,0,0,0c5.1,0.6,13.7,2.1,23.5,5.7
							c-1.5-1-3.3-2.4-5.2-4c-1.8-1.5-1.4-3.2,1.1-4.4l0,0c5.6-3.1,9.1-7.1,9.8-12c0.3-2,0.1-4-0.6-6c0,0,0,0,0,0
							c-0.3-1.2-1.4-4.2-0.4-6l0,0c0.9-1.6,1.7-3.4,2.5-5.5C123.4,23.6,123,23.7,122.4,24.5z"/>
						<path class="st2" d="M120.8,18.3c-0.3,0.2-0.7,0.4-1,0.6c0,0,0,0-0.1,0l0,0c-2.5,1.3-5.5,2.8-8.9,4.4
							c-8.1-5.9-20-10.8-33.8-13.3c0,0,0,0,0,0l0,0c-1.1-0.2-2.1-0.4-3.2-0.5c-0.9-0.1-1.8-0.2-2.7-0.3c0,0,0,0,0,0
							c-0.1-0.2-0.3-0.5-0.4-0.7c-0.1-0.2-0.3-0.5-0.4-0.7c-0.6-1-1.1-2.1-1.6-3.1c0-0.1-0.1-0.2-0.2-0.3c-1.5-2.9-3-1.9-4,0l0,0
							c-0.8,1.5-1.6,3-2.4,4.6L61,9.2c-0.7,0.1-1.4,0.2-2,0.3c-28.4,4.2-49.2,18-47.2,31.7c0.6,4.2,2.8,8.5,7.2,11.4c0,0,0,0,0,0
							c-4.2,3.3-8.4,7.4-12.7,12.3c0,0,0.6-0.3,1.7-0.9c1.7-0.9,3.9-2.2,6.5-3.7c2.7-1.6,5.8-3.4,9.2-5.2c1.6-0.9,3.3-1.7,5-2.6
							c1.3-0.6,2.6-1.2,3.9-1.8c5.5-2.4,11.5-4.4,17.6-5.4c1.2-0.2,2.4-0.4,3.7-0.5l7.2-0.9c-2.2,1.6-3.6,4.2-3.6,7.2c0,5,4,9,9,9
							c5,0,9-4,9-9c0-3.7-2.2-6.9-5.4-8.2l1.2-0.1c0,0,0,0,0,0c2-0.3,4-0.6,6.1-0.9C82.2,41,87,40,91.8,38.7
							c5.3-1.4,10.4-3.3,15.1-5.7c3.1-1.6,6.1-3.5,8.7-5.7c2.1-1.7,4.1-3.7,5.8-5.9c0.4-0.5,0.7-0.9,1.1-1.4c0-0.1,0.1-0.1,0.2-0.2
							c0.2-0.3,0.4-0.6,0.7-1C124.2,17.3,123.2,17,120.8,18.3z M66.5,49.7c-1.8,0-3.2-1.4-3.2-3.2c0-1.8,1.4-3.2,3.2-3.2
							c1.8,0,3.2,1.4,3.2,3.2C69.7,48.3,68.3,49.7,66.5,49.7z M91.9,30.4c-3.8,1.1-6.3,0.4-8.6-2.6C79.8,23,76.4,18,73.4,13
							c-0.8-2.1,0.9-3,3.4-2.4c0,0,0.1,0,0.1,0c9,2.6,16.7,6.6,22.1,11.3c2.7,2.6,3.1,3.8-0.1,6.2C96.6,28.9,94.3,29.7,91.9,30.4z
							 M68.4,26.2C68.4,26.2,68.4,26.3,68.4,26.2c0.2,0.3,0.3,0.5,0.4,0.8c-0.2-0.4-0.6-1.1,0,0.1c0,0,0,0,0,0
							c0.4,0.8,0.9,1.7,1.5,2.7l0,0c0,0,0,0.1,0.1,0.1c0.1,0.2,0.2,0.4,0.4,0.7c1.4,2.5,2.2,4.5-0.1,5.1c-0.4,0.1-0.8,0.1-1.2,0.2
							c-1.8,0.2-3.7,0.5-5.7,0.7c0,0,0,0,0,0c-3.9,0.4-3.7-1.8-1.7-5.3l0,0c1.1-1.9,2-3.6,2.7-5l0,0C65.8,24.3,67,23.6,68.4,26.2z
							 M43.4,36.2c-1.9,2.2-4.9,5.3-8,6.5l0,0c-0.5,0.2-1,0.4-1.5,0.6c0,0,0,0,0,0c-2.6,1.1-6.1,2.2-8.1-2.3c-0.1-0.5-0.2-1-0.3-1.5
							c-1.7-11.3,10.7-22.9,29-28.6c3.9-1.1,7.1-1.2,4.5,3.5C54.2,22.1,48.8,29.5,43.4,36.2z"/>
					</g>
				</g>
			</g>
			<g>
				<path class="st2" d="M45.3,107.9v1.7H53v12.2c0,1.3-0.3,1.9-1.2,2.3c-0.9,0.4-2.2,0.4-4,0.4c-0.1-0.7-0.5-1.6-0.9-2.3
					c1.1,0.1,2.5,0.1,2.9,0c0.4,0,0.5-0.1,0.5-0.5V112h-8.4c0.5,0.7,1,1.7,1.3,2.4l-1.7,0.6h3.4l-0.2,0c0.5-0.8,1.1-2,1.4-2.9
					l2.3,0.6c-0.5,0.8-0.9,1.6-1.4,2.3h1.9v2.1H45v1.5h4.3v2.1H45v3.2h-2.5v-3.2h-4.1v-2.1h4.1v-1.5h-3.7V115h2
					c-0.2-0.7-0.7-1.6-1.1-2.4l2-0.6h-4.3v12.5h-2.7v-14.9h7.7v-1.7h-8.5v-2.5h8.5v-1.7h2.9v1.7h8.5v2.5H45.3z"/>
				<path class="st2" d="M67,118.9c-0.3-0.5-0.9-1.2-1.5-1.9v7.5h-2.4v-6.6c-0.6,1.5-1.4,2.9-2.3,3.8c-0.4-0.5-1.1-1.4-1.7-1.8
					c-0.3,1.7-0.8,3.3-1.5,4.6c-0.5-0.5-1.7-1.3-2.3-1.6c1.6-3.1,1.7-7.7,1.7-10.9v-6.2h8.4v-2.3h2.8v2.3h8.2v2.5H59.8v3.7
					c0,2.2-0.1,5.1-0.6,7.9c1.4-1.3,2.7-3.7,3.5-6.1h-2.3v-2.3h2.8v-2.7h2.4v2.7h2.4v2.3h-2.4v0.4c0.8,0.7,2.4,2.2,2.8,2.6L67,118.9
					z M73.9,113.7c0.8,2.3,2,4.6,3.2,6c-0.6,0.4-1.4,1.2-1.8,1.8c-0.7-1.1-1.5-2.7-2.1-4.4v7.4h-2.4v-6.8c-0.7,1.6-1.5,3.1-2.4,4.1
					c-0.4-0.5-1.1-1.3-1.6-1.8c1.4-1.4,2.8-3.8,3.6-6.2h-2.1v-2.3h2.5v-2.7h2.4v2.7h3.2v2.3H73.9z"/>
				<path class="st2" d="M86.7,109.3c-0.5,1.2-1.1,2.3-1.8,3.4h3.6v-2.6h2.7v2.6h6.5v7c0,1.2-0.2,1.9-1.1,2.3
					c-0.9,0.4-2.1,0.4-3.8,0.4c-0.1-0.7-0.5-1.8-0.8-2.4c1,0,2.2,0,2.5,0c0.4,0,0.5-0.1,0.5-0.4v-4.4h-3.7v9.3h-2.7v-9.3H85v7.3
					h-2.7V116c-0.9,0.9-1.8,1.7-2.9,2.5c-0.3-0.7-1-1.8-1.5-2.4c2.5-1.6,4.4-4.1,5.8-6.9h-5v-2.6h6.2c0.4-1.1,0.8-2.2,1-3.3l2.8,0.6
					c-0.3,0.9-0.6,1.8-0.9,2.6h11v2.6H86.7z"/>
			</g>
		</g>
	</g>
</g>
</svg>
