<svg xmlns="http://www.w3.org/2000/svg" width="253.218" height="30.12" viewBox="0 0 253.218 30.12">
  <g id="グループ_647" data-name="グループ 647" transform="translate(-1968.772 -32.18)">
    <g id="グループ_646" data-name="グループ 646">
      <path id="パス_118" data-name="パス 118" d="M1982.938,49.923h10.2l-1.269-3.612q-.78-2-1.537-3.782a19.771,19.771,0,0,0-1.733-3.246,2.738,2.738,0,0,0-2-1.561,2.873,2.873,0,0,0-2.1,1.561,22.329,22.329,0,0,0-1.684,3.246q-.758,1.782-1.537,3.782l-5.32,14.544h-7.187l6.642-16.983a49.106,49.106,0,0,1,4.3-8.465,7.513,7.513,0,0,1,12.324-.024,46.849,46.849,0,0,1,4.28,8.489l6.688,16.983H1995.9l-1.5-3.644h-11.465Z" fill="#fff"/>
      <path id="パス_119" data-name="パス 119" d="M2012.091,32.917V60.855h-6.073V32.917Zm3.668,12.686q1.356-2.2,5.192-3.227l15.434-4.023v6.408l-14.312,3.695a1.861,1.861,0,0,0,0,3.555l14.312,3.741V62.3l-15.434-4.209q-3.883-1.075-5.215-3.274a8.711,8.711,0,0,1-1.333-4.584A8.843,8.843,0,0,1,2015.759,45.6Z" fill="#fff"/>
      <path id="パス_120" data-name="パス 120" d="M2042.256,45.059a10.549,10.549,0,0,1,3.106-4.166,8.511,8.511,0,0,1,5.563-1.9H2070.4v7.288h-20.291a1.936,1.936,0,0,0-1.484.7,4.869,4.869,0,0,0-.968,1.647,5.389,5.389,0,0,0-.337,1.806V60.855h-6.074V49.923h.048A12.743,12.743,0,0,1,2042.256,45.059Z" fill="#fff"/>
      <path id="パス_121" data-name="パス 121" d="M2084.793,60.855a9.617,9.617,0,0,1-6.05-1.887,10.441,10.441,0,0,1-2.956-3.957,11.647,11.647,0,0,1-.91-4.481,12.157,12.157,0,0,1,.887-4.571A10.14,10.14,0,0,1,2078.721,42a8.042,8.042,0,0,1,5.253-1.8h14.737a8.05,8.05,0,0,1,5.254,1.8,10.153,10.153,0,0,1,2.956,3.957,12.153,12.153,0,0,1,.887,4.571,11.668,11.668,0,0,1-.909,4.481,10.454,10.454,0,0,1-2.957,3.957,9.617,9.617,0,0,1-6.049,1.887Zm-1.039-14.576a1.974,1.974,0,0,0-1.509.708,4.42,4.42,0,0,0-.937,1.646,6.107,6.107,0,0,0-.3,1.852,6.246,6.246,0,0,0,.3,1.9,4.412,4.412,0,0,0,.937,1.646,2.133,2.133,0,0,0,1.509.754h15.177a2.133,2.133,0,0,0,1.509-.754,4.425,4.425,0,0,0,.937-1.646,6.246,6.246,0,0,0,.3-1.9,6.107,6.107,0,0,0-.3-1.852,4.433,4.433,0,0,0-.937-1.646,1.974,1.974,0,0,0-1.509-.708Z" fill="#fff"/>
      <path id="パス_122" data-name="パス 122" d="M2141.9,45.064h-23.77a1.871,1.871,0,0,0-1,.238,2,2,0,0,0-.571.5.815.815,0,0,0-.191.452.852.852,0,0,0,.191.5,1.731,1.731,0,0,0,.571.477,2.419,2.419,0,0,0,1,.262h15.906a10.039,10.039,0,0,1,4.876,1.148,6.991,6.991,0,0,1,2.743,2.579,6.082,6.082,0,0,1,.82,2.977,5.864,5.864,0,0,1-.844,2.93,7.2,7.2,0,0,1-2.742,2.579,9.57,9.57,0,0,1-4.853,1.1q-.516.047-.75.046h-21.754V54.782h21.556a2.008,2.008,0,0,0,1.082-.177,2.085,2.085,0,0,0,.641-.486.828.828,0,0,0,.221-.53,1.1,1.1,0,0,0-.221-.464,1.55,1.55,0,0,0-.641-.53,3.037,3.037,0,0,0-1.082-.243h-12.456a8.023,8.023,0,0,1-4.15-1.059,6.162,6.162,0,0,1-2.335-2.356,5.793,5.793,0,0,1-.691-2.68,5.54,5.54,0,0,1,.713-2.658,6.152,6.152,0,0,1,2.334-2.291,8.51,8.51,0,0,1,4.129-1.059q.431-.043.648-.044h20.62Z" fill="#fff"/>
    </g>
    <path id="パス_214" data-name="パス 214" d="M-13.95-16.325V-19.1h-9.4V-21H-26.6v1.9h-9.45v2.775h9.45v1.875h-8.5V2.1h3V-11.725h4.75l-2.275.675A16.409,16.409,0,0,1-28.4-8.425h-2.175V-6.1h4.1v1.625h-4.6V-2.1h4.6V1.45h2.8V-2.1H-18.9V-4.475h-4.775V-6.1h4.225V-8.425H-21.6c.475-.75.975-1.65,1.5-2.575l-2.5-.7a18.059,18.059,0,0,1-1.525,3.225l.175.05h-3.775l1.9-.625a13.8,13.8,0,0,0-1.4-2.675h9.275V-.9c0,.4-.125.525-.575.525-.4.025-1.95.025-3.175-.05A10.757,10.757,0,0,1-20.725,2.1a13.417,13.417,0,0,0,4.475-.425c1.025-.425,1.375-1.1,1.375-2.55V-14.45H-23.35v-1.875ZM2.35-6.4C1.875-6.85.125-8.525-.775-9.325V-9.8H1.9v-2.525H-.775V-15.3h-2.65v2.975H-6.55V-9.8h2.6A16.416,16.416,0,0,1-7.8-3a48.843,48.843,0,0,0,.7-8.75v-4.075H11.375V-18.65H2.325v-2.5h-3.1v2.5H-10.1v6.9c0,3.55-.125,8.6-1.9,12.075a12.579,12.579,0,0,1,2.525,1.8A18.142,18.142,0,0,0-7.825-3,10.2,10.2,0,0,1-5.95-.975,14.23,14.23,0,0,0-3.425-5.2V2.125h2.65v-8.3a25.21,25.21,0,0,1,1.65,2.15Zm9-3.425v-2.5H7.825V-15.3H5.15v2.975H2.425v2.5h2.3A18.7,18.7,0,0,1,.7-2.9,14.928,14.928,0,0,1,2.525-.95,17.127,17.127,0,0,0,5.15-5.475v7.6H7.825V-6.1a22.733,22.733,0,0,0,2.3,4.925A10,10,0,0,1,12.075-3.2a22,22,0,0,1-3.5-6.625Zm24.825-4.95v-2.85h-12.2q.525-1.462.975-2.925l-3.075-.7a26.182,26.182,0,0,1-1.125,3.625H13.9v2.85h5.575a19.4,19.4,0,0,1-6.45,7.625A19.409,19.409,0,0,1,14.7-4.525a20.9,20.9,0,0,0,3.175-2.75V-.05H20.85V-8.175H24.8V2.15h3V-8.175h4.15V-3.3c0,.325-.125.425-.525.425-.35,0-1.675,0-2.825-.05a10.459,10.459,0,0,1,.925,2.7A11.1,11.1,0,0,0,33.7-.675c1-.45,1.275-1.2,1.275-2.575V-11H27.8v-2.875h-3V-11H20.775A30.4,30.4,0,0,0,22.8-14.775Z" transform="translate(2185.814 58.966)" fill="#fff"/>
  </g>
</svg>
